<svg xmlns="http://www.w3.org/2000/svg" width="616.381" height="432.024" viewBox="0 0 616.381 432.024">
  <g id="グループ_164" data-name="グループ 164" transform="translate(-4264.179 -2915.892)" opacity="0.65">
    <path id="パス_504" data-name="パス 504" d="M4293.722,2925.9l1.12-3.99.7-2.94c.559-2.241.559-2.241,1.049-2.17h.21l1.191.069,1.12.07c2.03-.139,2.03-.139,2.73-.139.56,0,.56,0,1.121,2.38.209,1.05.489,2.17.7,3.291.28,1.189.77,3.08,1.331,5.39l7.56,29.123,6.3-24.5a78.761,78.761,0,0,0,2.1-10.571c0-1.26-.42-2.03-1.33-2.31a9.669,9.669,0,0,0-3.22-.42c-.42,0-.561-.14-.561-.42v-1.33c0-.35.141-.491.561-.491l2.45.071c1.33.07,2.66.14,3.851.14,1.609,0,2.1,0,6.58-.211h.21c.35,0,.49.141.49.491v1.33c0,.42-.14.49-.56.49-3.081.07-3.991,1.189-5.811,7.49l-8.191,29.334c-.349,1.119-.56,2.1-.77,2.94-.35,1.541-.56,2.59-.63,2.8-.21.7-.279,1.121-.35,1.33-.07.77-.209.911-.77.911h-.91c-.77-.071-1.33-.071-1.47-.071a6.332,6.332,0,0,0-1.12.071h-.84c-.421,0-.56-.141-.631-.631-.069-.209-.21-.84-.489-1.82,0-.139-.28-1.12-.561-2.52-.139-.42-.349-1.54-.7-2.731l-8.82-33.812-8.682,31.922c-.63,2.171-.979,3.711-1.12,4.271-.279,1.05-.489,2.1-.7,3.151-.49,2.24-.49,2.24-.91,2.24a5.72,5.72,0,0,1-.981-.07c-.91-.071-1.47-.071-1.68-.071a9.4,9.4,0,0,0-1.26.071h-.771c-.42,0-.559-.141-.7-.77a11.384,11.384,0,0,0-.28-1.33c-.28-1.121-.63-2.24-1.191-4.621l-7.77-29.543c-2.03-7.421-2.87-8.471-6.581-8.541-.42,0-.56-.07-.56-.49v-1.33c0-.35.14-.491.56-.491l5.951.071h8.12l2.381-.071c.49,0,.63.141.63.491v1.33c-.07.42-.14.49-.561.49-3.639,0-4.9.84-4.9,3.291,0,1.189.21,2.31,1.19,5.949l7.631,28.844Z" fill="#f1f1f1"/>
    <path id="パス_505" data-name="パス 505" d="M4350.805,2956.355v4.761c4.2.14,4.2.14,5.6.14h4.55c8.961.07,9.661-.56,10.641-10.08.071-.7.14-.841.63-.841h2.591c.489,0,.7.28.7,1.05l-.069,2.73v5.74l.069,2.872c0,.98-.279,1.189-1.4,1.189l-12.6-.35h-13.791c-.841,0-3.081.071-6.441.211-.91.069-1.96.069-2.45.069-.42,0-.56-.139-.56-.49v-1.33c0-.42.14-.49.56-.49,3.5-.14,3.711-.21,4.69-.7.981-.84,1.12-1.891,1.191-7.28v-26.394c-.071-7.631-.21-7.84-5.111-7.91h-.98c-.281-.07-.35-.141-.35-.561v-1.33c0-.349.14-.42.56-.42l8.891.211h10.361c12.252-.211,13.372-.211,15.822-.35h.349c.7,0,.84.139.84,1.05,0,.14-.069,1.75-.139,2.73v2.381c0,.629,0,1.47.07,2.66l.069,2.449c0,.7-.069.771-.7.771h-2.24c-.56,0-.56,0-.7-.21a1.292,1.292,0,0,1-.141-.49l-.21-1.821c-.979-5.881-2.1-6.72-8.681-6.72h-6.3c-1.12,0-2.031.07-5.181.14l-.07,1.47v1.19l-.07,3.151v12.81h5.04c6.231,0,7-.7,7.211-6.23,0-.7.071-.91.63-.91h1.961c.42,0,.63.211.63.84s-.07,2.1-.141,3.431c-.139,1.68-.139,3.57-.139,4.971v2.24c.07,2.029.139,3.64.139,4.2s-.21.771-.63.771h-1.889c-.49-.07-.49-.07-.771-2.45-.56-3.851-1.61-4.551-7-4.481h-5.04Z" fill="#f1f1f1"/>
    <path id="パス_506" data-name="パス 506" d="M4444.537,2929.613c-.561,0-.561-.07-.63-.631a23.959,23.959,0,0,0-1.4-5.95c-1.47-3.15-5.041-4.69-10.5-4.69-12.392,0-17.363,6.371-17.363,22.123,0,15.191,5.391,21.981,17.5,21.981,5.32,0,8.331-1.26,10.011-4.27a14.473,14.473,0,0,0,1.61-7.351c.071-.7.21-.91.63-.91h2.8c.49,0,.63.21.63.91v4.061c0,3.43,0,5.53.07,6.23v.351c0,.7-.84,1.189-3.291,1.75a65.333,65.333,0,0,1-14.351,1.679c-7.63,0-13.021-1.75-16.732-5.39-4.13-4.061-5.881-9.8-5.881-19.041,0-7.912,1.261-13.092,4.131-17.013,3.641-5.04,10.081-7.56,19.182-7.56a59.7,59.7,0,0,1,14.771,1.96c2.171.63,2.24.63,2.171,1.47v.28a35.968,35.968,0,0,0-.141,4.34l.071,3.081a11.7,11.7,0,0,1,.07,1.331c0,.91-.21,1.259-.7,1.259Z" fill="#f1f1f1"/>
    <path id="パス_507" data-name="パス 507" d="M4500.047,2922.262c3.36,3.64,4.759,8.961,4.759,17.713,0,17.571-7.21,24.921-24.5,24.921-8.681,0-14.492-2.31-17.782-7.07-2.94-4.27-4.341-10.082-4.341-17.922,0-16.452,7.492-24.012,23.873-24.012C4490.455,2915.892,4496.2,2917.922,4500.047,2922.262Zm-34.865,17.852c0,6.161.7,10.851,2.241,14.491,2.03,4.971,7.071,7.841,13.861,7.841,6.931,0,12.111-2.94,14.282-8.19,1.54-3.641,2.24-8.192,2.24-14.072,0-6.44-.77-11.131-2.52-14.492-2.381-4.76-7.281-7.35-13.792-7.35C4470.363,2918.342,4465.182,2925.272,4465.182,2940.114Z" fill="#f1f1f1"/>
    <path id="パス_508" data-name="パス 508" d="M4522.022,2953.485c.21,7.7.21,7.771,5.6,8.051.49,0,.56.07.56.49v1.33c0,.351-.14.49-.56.49s-1.54,0-2.38-.069c-2.171-.07-3.57-.14-5.111-.14-.49,0-2.24.07-4.69.14l-2.451.069c-.42,0-.56-.139-.56-.49v-1.33a.6.6,0,0,1,.14-.42c0-.07.21-.07.42-.07l.77-.069c4.2-.071,4.761-.49,4.971-3.99.069-2.452.14-3.711.14-3.921l-.14-29.4c.069-3.78-1.12-4.9-4.971-4.9h-.98c-.279-.07-.35-.141-.35-.49v-1.33c0-.35.14-.491.56-.491l2.8.071c.7,0,1.259,0,2.52-.071,3.5-.21,4.481-.279,4.76-.279a1.08,1.08,0,0,1,1.12.56c.49.63.981,1.33,1.471,2.03,2.03,2.87,3.36,4.69,3.71,5.181l24.5,31.573-.7-28.774c-.21-7.7-.21-7.77-5.88-7.98-.42,0-.49-.07-.56-.49v-1.33c0-.35.14-.491.63-.491.42,0,1.61,0,2.38.071,2.52.07,4.2.14,4.761.14.28,0,2.1-.07,4.9-.14.77-.071,2.03-.071,2.381-.071.489,0,.559.071.559.491v1.33c0,.42-.07.49-.49.49-5.391.141-5.46.21-5.46,7.98l-.07,25.9v6.441c.07,1.4.07,2.381.07,3.43,0,.56-.14.7-.841.7h-2.66c-.559,0-.84-.211-1.609-1.19-.211-.281-.211-.281-1.4-1.821-.629-.841-.91-1.26-1.68-2.171l-27.023-34.722Z" fill="#f1f1f1"/>
    <path id="パス_509" data-name="パス 509" d="M4592.163,2919.322c-.071,1.26-.071,1.61-.071,2.38v31.854c.071,5.6.211,6.65,1.331,7.35.98.49,1.47.561,4.97.63.49,0,.561.07.561.49v1.33c0,.351-.141.49-.561.49l-2.38-.069c-2.66-.14-4.83-.211-6.791-.211-1.259,0-3.78.071-7.14.211l-2.38.069c-.42,0-.561-.139-.561-.49v-1.33c0-.42.071-.49.561-.49,3.71-.14,4.2-.14,5.11-.7.981-.84,1.12-1.82,1.191-7.28v-28.7c-.071-2.1-.141-3.641-.21-5.531l-6.091.071c-5.811,0-6.931,1.33-7.631,8.82-.07.49-.07.49-.561.56H4569.2c-.7,0-.841-.14-.841-.63l.07-1.821c.071-.769.071-1.96.071-2.8,0-2.17,0-2.17-.071-5.6,0-.84.21-.981,1.471-.981l3.36.071h31.293c2.031-.071,3.361-.071,4.061-.071.979,0,1.05.071,1.05.631,0,.07,0,.07-.14,1.821v1.75c0,1.82.069,3.779.14,5.04a15.961,15.961,0,0,1,.07,1.68c0,.491-.21.77-.561.77h-2.589c-.561,0-.561-.07-.63-.7-.771-7.63-1.681-8.471-8.472-8.54Z" fill="#f1f1f1"/>
    <path id="パス_510" data-name="パス 510" d="M4628.841,2953.556c0,7.63.14,7.84,5.111,7.911l.769.069c.421,0,.491.07.491.49v1.33c0,.351-.14.49-.56.49l-2.381-.069c-2.59-.14-4.62-.211-6.37-.211-.98,0-3.36.071-6.581.211l-2.45.069c-.42,0-.56-.139-.56-.49v-1.33a.59.59,0,0,1,.14-.42c0-.07.21-.07.42-.07l.77-.069c4.9-.071,5.04-.281,5.111-7.911v-26.324c-.071-7.63-.21-7.839-5.111-7.98h-.98c-.28-.07-.35-.141-.35-.49v-1.33c0-.35.14-.491.56-.491.35,0,1.54,0,2.45.071,2.87.07,4.971.14,6.371.14.98,0,.98,0,8.261-.14,2.38-.071,4.551-.071,6.3-.071,4.76,0,7.91.771,9.73,2.381a11.694,11.694,0,0,1,3.15,8.33,10.486,10.486,0,0,1-6.089,9.942,19.336,19.336,0,0,1-5.881,1.61l9.591,14.632c4.62,6.721,5.461,7.49,8.821,7.7.42.07.489.14.489.56v1.26c0,.421-.069.49-.349.49-.071,0-.071,0-2.031-.139-.98-.07-1.75-.07-2.94-.07h-1.33c-1.75.14-3.08.209-3.151.209-.49,0-.63-.139-1.469-1.75-.21-.42-.841-1.469-2.871-4.481l-7.21-11.131c-2.731-4.13-3.361-4.9-4.832-5.6q-1.154-.212-5.04-.42Zm0-15.4c1.96.071,3.43.071,4.761.071,4.97,0,7.84-.772,9.941-2.662a10.07,10.07,0,0,0,2.87-7.56,9.646,9.646,0,0,0-1.54-5.6c-1.68-2.31-3.71-3.009-8.471-3.009-2.66,0-4.341.069-7.421.209-.07,1.541-.14,1.961-.14,2.66v15.892Z" fill="#f1f1f1"/>
    <path id="パス_511" data-name="パス 511" d="M4672.24,2927.232c-.07-7.63-.21-7.839-5.11-7.98h-.981c-.28-.07-.35-.141-.35-.49v-1.33c0-.35.14-.491.56-.491.351,0,1.54,0,2.45.071,2.8.07,4.971.14,6.3.14,1.26,0,3.431-.07,6.65-.14.911-.071,2.171-.071,2.381-.071.42,0,.56.071.56.491v1.33a.594.594,0,0,1-.14.42,1.422,1.422,0,0,1-.349.07h-.771c-4.971.141-5.11.35-5.11,7.98v26.324c0,7.63.139,7.84,5.11,7.911l.771.069c.419,0,.489.07.489.49v1.33c0,.351-.14.49-.56.49l-2.381-.069c-2.589-.14-4.62-.211-6.37-.211-.98,0-3.36.071-6.581.211l-2.45.069c-.42,0-.56-.139-.56-.49v-1.33a.592.592,0,0,1,.14-.42c0-.07.21-.07.42-.07l.771-.069c4.9-.071,5.04-.281,5.11-7.911Z" fill="#f1f1f1"/>
    <path id="パス_512" data-name="パス 512" d="M4693.8,2917.432c0-.35.14-.491.56-.491.28,0,1.54,0,2.45.071,3.011.07,5.532.14,7.562.14,1.47,0,1.47,0,7.56-.14,1.821-.071,3.991-.071,5.391-.071,4.76,0,7.211.561,9.52,2.17,2.521,1.821,3.921,4.762,3.921,8.541,0,6.442-3.85,10.291-11.411,11.342,4.55.77,6.3,1.33,8.12,2.38,3.011,1.751,4.551,4.761,4.551,9.171,0,8.891-5.671,13.371-16.8,13.371-1.679,0-2.31,0-7.77-.279-1.12-.071-2.381-.071-3.711-.071-1.19,0-3.64.071-6.931.211l-2.45.069c-.42,0-.56-.139-.56-.49v-1.33a.592.592,0,0,1,.14-.42c0-.07.21-.07.42-.07l.771-.069c4.9-.071,5.04-.281,5.11-7.911v-26.324c-.07-7.63-.21-7.839-5.11-7.98h-.981c-.28-.07-.35-.141-.35-.49Zm12.532,20.582c1.889.07,2.87.07,3.92.07,5.251,0,7.981-.561,10.291-2.17,2.171-1.471,3.43-4.341,3.43-7.911,0-3.011-.91-5.46-2.59-7-1.4-1.189-3.081-1.609-6.51-1.609-.141,0-3.011.069-8.541.279v18.342Zm.21,23.033c4.34.139,4.76.139,5.95.139,9.241,0,12.672-2.8,12.672-10.5,0-7.352-3.711-10.291-12.812-10.291-1.4,0-2.8.07-6.02.279v14.912c0,1.54,0,1.68.139,4.06Z" fill="#f1f1f1"/>
    <path id="パス_513" data-name="パス 513" d="M4745.319,2927.232c-.07-7.63-.21-7.839-5.11-7.98h-.981c-.28-.07-.349-.141-.349-.49v-1.33c0-.35.139-.491.559-.491.35,0,1.54,0,2.45.071,2.8.07,4.971.14,6.3.14,1.26,0,3.431-.07,6.651-.14.91-.071,2.17-.071,2.38-.071.42,0,.56.071.56.491v1.33a.594.594,0,0,1-.14.42,1.422,1.422,0,0,1-.35.07h-.77c-4.971.141-5.11.35-5.11,7.98v16.592c0,8.121.42,11.062,1.96,13.791,1.82,3.221,5.6,4.831,11.411,4.831,6.3,0,10.641-1.96,12.951-5.88,1.261-2.17,1.75-5.041,1.75-11.271l-.069-2.031-.351-16.1c-.139-6.019-.349-7-1.82-7.42a21.724,21.724,0,0,0-4.55-.49c-.42,0-.49-.07-.561-.49v-1.33c0-.35.141-.491.63-.491l2.381.071c2.31.07,4.13.14,5.25.14.91,0,2.8-.07,5.531-.14.91-.071,2.17-.071,2.38-.071.491,0,.63.071.63.491v1.33c0,.42-.139.49-.559.49-5.532.141-5.6.21-5.671,7.841v18.552c-.071,6.72-1.05,11.06-3.221,13.721-3.22,3.921-7.841,5.53-15.821,5.53-8.051,0-13.092-1.82-15.892-5.6-1.96-2.8-2.45-5.6-2.45-13.511Z" fill="#f1f1f1"/>
    <path id="パス_514" data-name="パス 514" d="M4819.17,2919.322c-.07,1.26-.07,1.61-.07,2.38v31.854c.07,5.6.21,6.65,1.33,7.35.98.49,1.47.561,4.97.63.49,0,.561.07.561.49v1.33c0,.351-.14.49-.561.49l-2.38-.069c-2.66-.14-4.83-.211-6.791-.211-1.26,0-3.78.071-7.14.211l-2.38.069c-.42,0-.561-.139-.561-.49v-1.33c0-.42.07-.49.561-.49,3.71-.14,4.2-.14,5.11-.7.98-.84,1.12-1.82,1.19-7.28v-28.7c-.07-2.1-.14-3.641-.21-5.531l-6.09.071c-5.811,0-6.931,1.33-7.631,8.82-.071.49-.071.49-.561.56h-2.309c-.7,0-.841-.14-.841-.63l.07-1.821c.07-.769.07-1.96.07-2.8,0-2.17,0-2.17-.07-5.6,0-.84.21-.981,1.471-.981l3.36.071h31.293c2.03-.071,3.361-.071,4.061-.071.979,0,1.05.071,1.05.631,0,.07,0,.07-.14,1.821v1.75c0,1.82.069,3.779.14,5.04a15.851,15.851,0,0,1,.07,1.68c0,.491-.21.77-.561.77h-2.59c-.56,0-.56-.07-.629-.7-.771-7.63-1.681-8.471-8.472-8.54Z" fill="#f1f1f1"/>
    <path id="パス_515" data-name="パス 515" d="M4855.848,2956.355v4.761c4.2.14,4.2.14,5.6.14H4866c8.961.07,9.661-.56,10.641-10.08.071-.7.14-.841.63-.841h2.591c.489,0,.7.28.7,1.05l-.069,2.73v5.74l.069,2.872c0,.98-.279,1.189-1.4,1.189l-12.6-.35h-13.791c-.841,0-3.081.071-6.441.211-.91.069-1.96.069-2.45.069-.42,0-.56-.139-.56-.49v-1.33c0-.42.14-.49.56-.49,3.5-.14,3.711-.21,4.69-.7.981-.84,1.12-1.891,1.19-7.28v-26.394c-.07-7.631-.209-7.84-5.11-7.91h-.98c-.281-.07-.35-.141-.35-.561v-1.33c0-.349.14-.42.56-.42l8.891.211h10.361c12.252-.211,13.372-.211,15.822-.35h.349c.7,0,.84.139.84,1.05,0,.14-.069,1.75-.139,2.73v2.381c0,.629,0,1.47.07,2.66l.069,2.449c0,.7-.069.771-.7.771h-2.24c-.56,0-.56,0-.7-.21a1.292,1.292,0,0,1-.141-.49l-.21-1.821c-.979-5.881-2.1-6.72-8.681-6.72h-6.3c-1.121,0-2.031.07-5.181.14l-.07,1.47v1.19l-.07,3.151v12.81h5.04c6.231,0,7-.7,7.211-6.23,0-.7.071-.91.63-.91h1.961c.42,0,.63.211.63.84s-.07,2.1-.141,3.431c-.139,1.68-.139,3.57-.139,4.971v2.24c.07,2.029.139,3.64.139,4.2s-.21.771-.63.771h-1.889c-.49-.07-.49-.07-.771-2.45-.56-3.851-1.61-4.551-7-4.481h-5.04Z" fill="#f1f1f1"/>
    <path id="パス_516" data-name="パス 516" d="M4292.252,3015.322c-.07,1.26-.07,1.61-.07,2.381v31.852c.07,5.6.21,6.652,1.33,7.351.98.49,1.47.561,4.97.631.49,0,.561.068.561.49v1.33c0,.35-.14.489-.561.489l-2.38-.069c-2.66-.14-4.83-.211-6.791-.211-1.26,0-3.78.071-7.14.211l-2.38.069c-.42,0-.561-.139-.561-.489v-1.33c0-.422.07-.49.561-.49,3.71-.141,4.2-.141,5.11-.7.98-.84,1.12-1.82,1.19-7.281v-28.7c-.07-2.1-.14-3.639-.21-5.53l-6.09.071c-5.811,0-6.931,1.33-7.631,8.82-.07.49-.07.49-.561.56h-2.309c-.7,0-.841-.14-.841-.63l.07-1.821c.071-.769.071-1.959.071-2.8,0-2.169,0-2.169-.071-5.6,0-.84.21-.981,1.471-.981l3.36.071h31.293c2.03-.071,3.361-.071,4.061-.071.979,0,1.05.071,1.05.631,0,.071,0,.071-.14,1.821v1.75c0,1.82.069,3.779.14,5.041a15.834,15.834,0,0,1,.07,1.679c0,.491-.21.77-.561.77h-2.59c-.56,0-.56-.07-.629-.7-.771-7.631-1.681-8.471-8.472-8.541Z" fill="#f1f1f1"/>
    <path id="パス_517" data-name="パス 517" d="M4359.489,3018.262c3.36,3.64,4.76,8.961,4.76,17.713,0,17.572-7.211,24.921-24.5,24.921-8.682,0-14.492-2.31-17.782-7.07-2.941-4.271-4.341-10.082-4.341-17.922,0-16.451,7.491-24.013,23.873-24.013C4349.9,3011.891,4355.638,3013.922,4359.489,3018.262Zm-34.864,17.851c0,6.162.7,10.852,2.24,14.492,2.03,4.971,7.071,7.842,13.861,7.842,6.931,0,12.112-2.941,14.282-8.191,1.54-3.641,2.241-8.192,2.241-14.072,0-6.44-.771-11.131-2.521-14.491-2.381-4.761-7.281-7.351-13.792-7.351C4329.805,3014.342,4324.625,3021.273,4324.625,3036.113Z" fill="#f1f1f1"/>
    <path id="パス_518" data-name="パス 518" d="M4417.8,3015.322c-.071,1.26-.071,1.61-.071,2.381v31.852c.071,5.6.211,6.652,1.331,7.351.98.49,1.47.561,4.97.631.49,0,.561.068.561.49v1.33c0,.35-.141.489-.561.489l-2.38-.069c-2.66-.14-4.83-.211-6.791-.211-1.26,0-3.78.071-7.14.211l-2.38.069c-.42,0-.561-.139-.561-.489v-1.33c0-.422.07-.49.561-.49,3.71-.141,4.2-.141,5.11-.7.98-.84,1.12-1.82,1.19-7.281v-28.7c-.07-2.1-.14-3.639-.21-5.53l-6.09.071c-5.811,0-6.931,1.33-7.631,8.82-.071.49-.071.49-.561.56h-2.309c-.7,0-.841-.14-.841-.63l.07-1.821c.07-.769.07-1.959.07-2.8,0-2.169,0-2.169-.07-5.6,0-.84.21-.981,1.471-.981l3.36.071h31.293c2.03-.071,3.361-.071,4.061-.071.979,0,1.05.071,1.05.631,0,.071,0,.071-.14,1.821v1.75c0,1.82.069,3.779.14,5.041a15.834,15.834,0,0,1,.07,1.679c0,.491-.21.77-.561.77h-2.59c-.56,0-.56-.07-.629-.7-.771-7.631-1.681-8.471-8.472-8.541Z" fill="#f1f1f1"/>
    <path id="パス_519" data-name="パス 519" d="M4455.762,3036.465v13.09c0,7.631.14,7.841,5.04,7.912l.771.07c.42,0,.559.068.559.49v1.33c0,.35-.139.489-.559.489l-2.45-.069c-2.521-.14-4.551-.211-6.3-.211-.981,0-3.36.071-6.581.211l-2.45.069c-.42,0-.56-.139-.56-.489v-1.33a.592.592,0,0,1,.14-.422c0-.068.21-.068.42-.068l.77-.07c4.9-.071,5.04-.281,5.111-7.912v-26.393c-.071-7.56-.21-7.769-5.111-7.91h-.98c-.281-.07-.35-.141-.35-.561v-1.259c0-.35.14-.491.56-.491.35,0,1.54,0,2.45.071,2.73.07,4.9.14,6.3.14,1.259,0,3.43-.07,6.581-.14.979-.071,2.17-.071,2.45-.071.42,0,.559.071.559.491v1.259a.672.672,0,0,1-.139.491,1.524,1.524,0,0,1-.42.07h-.771c-4.9.141-5.04.279-5.04,7.91v10.5h24.363v-10.5c-.071-7.631-.21-7.769-5.111-7.91h-.91c-.28-.07-.42-.141-.42-.561v-1.259c0-.35.14-.491.56-.491.35,0,1.54,0,2.45.071,2.73.07,4.9.14,6.3.14,1.261,0,3.43-.07,6.65-.14.91-.071,2.171-.071,2.381-.071.42,0,.56.071.56.491v1.259a.669.669,0,0,1-.14.491,1.422,1.422,0,0,1-.35.07h-.77c-4.971.141-5.111.35-5.111,7.91v26.393c0,7.631.14,7.841,5.111,7.912a7.184,7.184,0,0,0,.91.07c.28,0,.35.139.35.49v1.33c0,.35-.14.489-.56.489l-2.381-.069c-2.59-.14-4.62-.211-6.37-.211-.98,0-3.36.071-6.581.211l-2.38.069c-.49,0-.63-.139-.63-.489v-1.33a.6.6,0,0,1,.14-.422c0-.068.21-.068.42-.068l.77-.07c4.9-.071,5.04-.281,5.111-7.912v-13.09Z" fill="#f1f1f1"/>
    <path id="パス_520" data-name="パス 520" d="M4513.5,3052.355v4.762c4.2.139,4.2.139,5.6.139h4.55c8.961.07,9.661-.561,10.642-10.08.07-.7.139-.84.63-.84h2.59c.49,0,.7.279.7,1.049l-.07,2.73v5.74l.07,2.872c0,.98-.28,1.189-1.4,1.189l-12.6-.35h-13.791c-.841,0-3.081.071-6.442.211-.91.069-1.96.069-2.45.069-.42,0-.56-.139-.56-.489v-1.33c0-.422.14-.49.56-.49,3.5-.141,3.711-.211,4.69-.7.981-.84,1.121-1.891,1.191-7.281v-26.393c-.07-7.631-.21-7.84-5.11-7.91h-.981c-.28-.07-.35-.141-.35-.561v-1.33c0-.349.14-.42.56-.42l8.892.211h10.36c12.252-.211,13.372-.211,15.822-.351h.35c.7,0,.84.14.84,1.051,0,.14-.07,1.75-.14,2.73v2.381c0,.629,0,1.469.07,2.66l.07,2.449c0,.7-.07.772-.7.772h-2.241c-.559,0-.559,0-.7-.211a1.31,1.31,0,0,1-.141-.49l-.21-1.821c-.979-5.881-2.1-6.72-8.68-6.72h-6.3c-1.12,0-2.03.07-5.181.14l-.07,1.471v1.189l-.069,3.151v12.81h5.04c6.23,0,7-.7,7.211-6.23,0-.7.07-.91.63-.91h1.961c.419,0,.629.211.629.84s-.07,2.1-.14,3.431c-.14,1.68-.14,3.57-.14,4.971v2.24c.07,2.029.14,3.641.14,4.2s-.21.772-.63.772h-1.89c-.49-.071-.49-.071-.77-2.451-.561-3.85-1.611-4.551-7-4.481h-5.04Z" fill="#f1f1f1"/>
    <path id="パス_521" data-name="パス 521" d="M4281.821,3145.555c0,7.631.14,7.841,5.11,7.912l.771.07c.42,0,.489.068.489.49v1.33c0,.35-.14.489-.56.489l-2.38-.069c-2.59-.14-4.62-.211-6.37-.211-.981,0-3.361.071-6.582.211l-2.45.069c-.42,0-.559-.139-.559-.489v-1.33a.6.6,0,0,1,.139-.422c0-.068.21-.068.42-.068l.771-.07c4.9-.071,5.04-.281,5.11-7.912v-26.323c-.07-7.63-.21-7.839-5.11-7.98h-.981c-.28-.07-.349-.141-.349-.49v-1.33c0-.35.139-.491.559-.491.351,0,1.54,0,2.45.071,2.871.07,4.971.14,6.372.14.979,0,.979,0,8.26-.14,2.38-.071,4.551-.071,6.3-.071,4.761,0,7.911.77,9.731,2.381a11.7,11.7,0,0,1,3.15,8.33,10.485,10.485,0,0,1-6.091,9.942,19.324,19.324,0,0,1-5.88,1.609l9.591,14.633c4.62,6.721,5.461,7.49,8.821,7.7.42.068.49.139.49.559v1.261c0,.42-.07.489-.35.489-.07,0-.07,0-2.03-.139-.981-.07-1.75-.07-2.941-.07h-1.33c-1.75.14-3.08.209-3.15.209-.49,0-.63-.139-1.47-1.75-.21-.42-.841-1.469-2.87-4.481l-7.211-11.131c-2.73-4.13-3.36-4.9-4.831-5.6q-1.155-.212-5.04-.42Zm0-15.4c1.96.071,3.43.071,4.76.071,4.97,0,7.842-.772,9.941-2.661a10.075,10.075,0,0,0,2.87-7.562,9.641,9.641,0,0,0-1.54-5.6c-1.679-2.31-3.71-3.009-8.471-3.009-2.66,0-4.34.07-7.42.209-.071,1.541-.14,1.961-.14,2.66v15.892Z" fill="#f1f1f1"/>
    <path id="パス_522" data-name="パス 522" d="M4326.62,3119.232c-.071-7.63-.21-7.839-5.111-7.98h-.98c-.28-.07-.35-.141-.35-.49v-1.33c0-.35.14-.491.56-.491.351,0,1.54,0,2.45.071,2.8.07,4.971.14,6.3.14,1.261,0,3.431-.07,6.65-.14.91-.071,2.171-.071,2.381-.071.42,0,.56.071.56.491v1.33a.59.59,0,0,1-.14.42,1.423,1.423,0,0,1-.351.07h-.769c-4.971.141-5.11.35-5.11,7.98v26.323c0,7.631.139,7.841,5.11,7.912l.769.07c.421,0,.491.068.491.49v1.33c0,.35-.14.489-.56.489l-2.381-.069c-2.59-.14-4.62-.211-6.37-.211-.98,0-3.36.071-6.581.211l-2.45.069c-.42,0-.56-.139-.56-.489v-1.33a.6.6,0,0,1,.14-.422c0-.068.21-.068.42-.068l.77-.07c4.9-.071,5.04-.281,5.111-7.912Z" fill="#f1f1f1"/>
    <path id="パス_523" data-name="パス 523" d="M4383.6,3121.613c-.56,0-.56-.07-.63-.631a23.991,23.991,0,0,0-1.4-5.949c-1.471-3.15-5.041-4.691-10.5-4.691-12.392,0-17.362,6.371-17.362,22.123,0,15.191,5.39,21.982,17.5,21.982,5.32,0,8.331-1.261,10.01-4.271a14.479,14.479,0,0,0,1.611-7.35c.07-.7.21-.91.63-.91h2.8c.491,0,.63.209.63.91v4.059c0,3.431,0,5.531.071,6.232v.35c0,.7-.841,1.189-3.291,1.75a65.344,65.344,0,0,1-14.351,1.679c-7.631,0-13.022-1.75-16.732-5.39-4.13-4.061-5.881-9.8-5.881-19.041,0-7.912,1.26-13.092,4.131-17.012,3.64-5.041,10.081-7.562,19.181-7.562a59.706,59.706,0,0,1,14.772,1.961c2.171.63,2.24.63,2.171,1.47v.28a35.989,35.989,0,0,0-.141,4.341l.07,3.08a11.536,11.536,0,0,1,.071,1.331c0,.91-.21,1.259-.7,1.259Z" fill="#f1f1f1"/>
    <path id="パス_524" data-name="パス 524" d="M4408.1,3132.465v13.09c0,7.631.14,7.841,5.04,7.912l.771.07c.42,0,.559.068.559.49v1.33c0,.35-.139.489-.559.489l-2.45-.069c-2.521-.14-4.551-.211-6.3-.211-.981,0-3.36.071-6.581.211l-2.45.069c-.42,0-.56-.139-.56-.489v-1.33a.594.594,0,0,1,.14-.422c0-.068.21-.068.42-.068l.77-.07c4.9-.071,5.04-.281,5.11-7.912v-26.393c-.07-7.56-.209-7.769-5.11-7.91h-.98c-.281-.07-.35-.141-.35-.561v-1.259c0-.35.14-.491.56-.491.35,0,1.54,0,2.45.071,2.73.07,4.9.14,6.3.14,1.259,0,3.43-.07,6.581-.14.979-.071,2.17-.071,2.45-.071.42,0,.559.071.559.491v1.259a.672.672,0,0,1-.139.491,1.524,1.524,0,0,1-.42.07h-.771c-4.9.141-5.04.279-5.04,7.91v10.5h24.363v-10.5c-.071-7.631-.21-7.769-5.111-7.91h-.91c-.28-.07-.42-.141-.42-.561v-1.259c0-.35.14-.491.56-.491.35,0,1.54,0,2.45.071,2.73.07,4.9.14,6.3.14,1.26,0,3.43-.07,6.65-.14.91-.071,2.171-.071,2.381-.071.42,0,.56.071.56.491v1.259a.671.671,0,0,1-.14.491,1.428,1.428,0,0,1-.35.07h-.77c-4.971.141-5.111.35-5.111,7.91v26.393c0,7.631.14,7.841,5.111,7.912a7.19,7.19,0,0,0,.91.07c.28,0,.35.139.35.49v1.33c0,.35-.14.489-.56.489l-2.381-.069c-2.59-.14-4.62-.211-6.37-.211-.98,0-3.36.071-6.581.211l-2.38.069c-.49,0-.63-.139-.63-.489v-1.33a.6.6,0,0,1,.14-.422c0-.068.21-.068.42-.068l.77-.07c4.9-.071,5.04-.281,5.111-7.912v-13.09Z" fill="#f1f1f1"/>
    <path id="パス_525" data-name="パス 525" d="M4486.988,3135.684l-3.29,8.752c-1.191,3.291-1.54,4.621-1.54,6.089,0,2.1,1.54,3.012,5.04,3.012.63,0,.84.068.84.35v1.33c0,.42-.21.629-.77.629-.77,0-1.68,0-2.66-.069-1.891-.14-3.431-.211-4.131-.211-.91,0-2.59.071-5.11.211-1.191.069-2.03.069-3.011.069-.489,0-.559-.069-.559-.629v-1.33c0-.35.139-.42.629-.42,3.781-.211,4.551-1.051,7.631-8.471l11.342-27.584c.56-1.4,1.119-2.8,1.68-4.131.77-1.888,1.26-3.218,1.469-3.92.21-.769.351-.91,1.121-.91h3.22c.7,0,.84.07,1.05.49a18.215,18.215,0,0,1,.91,2.522q.945,2.834,1.471,4.2l11.691,30.313c2.451,6.511,3.15,7.281,7,7.492.7,0,.841.07.841.56v1.33c0,.35-.211.489-.631.489-.559,0-1.54,0-2.45-.069-3.15-.14-5.39-.211-6.37-.211-1.12,0-3.291.071-6.371.211-.77.069-1.75.069-2.24.069-.56,0-.7-.139-.7-.559v-1.33c0-.352.07-.42.56-.42a17.036,17.036,0,0,0,3.15-.42c1.4-.422,2.031-1.051,2.031-2.24a17.611,17.611,0,0,0-1.261-4.412l-4.13-10.781Zm8.191-21.073-7.211,18.483H4502.6Z" fill="#f1f1f1"/>
    <path id="パス_526" data-name="パス 526" d="M4538.017,3145.486c.21,7.7.21,7.77,5.6,8.051.49,0,.56.068.56.49v1.33c0,.35-.14.489-.56.489s-1.54,0-2.38-.069c-2.171-.07-3.57-.14-5.11-.14-.491,0-2.241.07-4.692.14l-2.45.069c-.42,0-.56-.139-.56-.489v-1.33a.6.6,0,0,1,.14-.422c0-.068.21-.068.42-.068l.77-.07c4.2-.071,4.761-.49,4.971-3.99.071-2.452.14-3.711.14-3.922l-.14-29.4c.071-3.781-1.12-4.9-4.971-4.9h-.98c-.279-.07-.35-.141-.35-.49v-1.33c0-.35.14-.491.56-.491l2.8.071c.7,0,1.26,0,2.52-.071,3.5-.209,4.481-.279,4.76-.279a1.08,1.08,0,0,1,1.12.561c.49.629.981,1.33,1.471,2.029,2.03,2.871,3.36,4.691,3.71,5.18l24.5,31.574-.7-28.774c-.21-7.7-.21-7.769-5.881-7.98-.42,0-.491-.07-.56-.49v-1.33c0-.35.14-.491.63-.491.42,0,1.61,0,2.38.071,2.52.07,4.2.14,4.761.14.28,0,2.1-.07,4.9-.14.771-.071,2.03-.071,2.381-.071.489,0,.559.071.559.491v1.33c0,.42-.07.49-.49.49-5.39.141-5.46.211-5.46,7.98l-.07,25.9v6.441c.07,1.4.07,2.381.07,3.43,0,.56-.14.7-.841.7h-2.66c-.559,0-.84-.211-1.61-1.191-.21-.28-.21-.28-1.4-1.821-.63-.84-.911-1.259-1.681-2.17l-27.023-34.722Z" fill="#f1f1f1"/>
    <path id="パス_527" data-name="パス 527" d="M4591.916,3119.232c-.071-7.63-.21-7.839-5.111-7.98h-.98c-.28-.07-.35-.141-.35-.49v-1.33c0-.35.14-.491.56-.491l2.45.071c3.36.14,5.881.211,8.961.211,1.33,0,1.33,0,8.191-.282,1.61-.07,3.29-.14,4.971-.14,6.37,0,10.36,1.121,13.3,3.851,4.131,3.78,6.02,9.731,6.02,18.9,0,17.011-5.67,24.361-18.832,24.361l-5.25-.07-4.2-.069-6.861-.211c-.91,0-2.941.071-6.3.211l-2.45.069c-.42,0-.56-.139-.56-.489v-1.33a.6.6,0,0,1,.14-.422c0-.068.21-.068.42-.068l.77-.07c4.9-.071,5.04-.281,5.111-7.912Zm6.09,28.914c0,1.75.07,3.43.14,4.69,4.9.35,6.581.42,8.4.42,5.53,0,9.52-1.26,12.111-3.709,2.8-2.731,4.269-8.893,4.269-18.412,0-8.192-1.54-13.442-4.759-16.524-2.311-2.308-6.021-3.289-11.972-3.289a44.316,44.316,0,0,0-8.051.7c-.07,1.192-.07,1.26-.14,4.272Z" fill="#f1f1f1"/>
    <path id="パス_528" data-name="パス 528" d="M4267.889,3205.432c0-.35.141-.491.561-.491.279,0,1.54,0,2.45.071,3.01.07,5.53.14,7.561.14,1.469,0,1.469,0,7.56-.14,1.82-.071,3.99-.071,5.391-.071,4.761,0,7.211.561,9.521,2.17,2.52,1.821,3.92,4.762,3.92,8.541,0,6.442-3.85,10.291-11.411,11.342,4.551.77,6.3,1.33,8.121,2.381,3.01,1.75,4.551,4.76,4.551,9.17,0,8.891-5.671,13.371-16.8,13.371-1.681,0-2.31,0-7.771-.279-1.12-.071-2.38-.071-3.71-.071-1.191,0-3.641.071-6.931.211l-2.45.069c-.42,0-.561-.139-.561-.489v-1.33a.6.6,0,0,1,.141-.422c0-.068.21-.068.42-.068l.769-.07c4.9-.071,5.041-.281,5.111-7.912v-26.323c-.07-7.63-.21-7.839-5.111-7.98h-.979c-.28-.07-.351-.141-.351-.49Zm12.532,20.582c1.89.07,2.87.07,3.92.07,5.25,0,7.981-.561,10.291-2.17,2.17-1.471,3.431-4.342,3.431-7.912,0-3.01-.91-5.459-2.591-7-1.4-1.189-3.08-1.609-6.51-1.609-.14,0-3.01.07-8.541.279v18.342Zm.21,23.033c4.34.139,4.76.139,5.951.139,9.241,0,12.671-2.8,12.671-10.5,0-7.352-3.71-10.291-12.812-10.291-1.4,0-2.8.07-6.02.279v14.912c0,1.539,0,1.68.14,4.06Z" fill="#f1f1f1"/>
    <path id="パス_529" data-name="パス 529" d="M4326.55,3244.355v4.762c4.2.139,4.2.139,5.6.139h4.55c8.961.07,9.661-.561,10.641-10.08.071-.7.14-.84.63-.84h2.591c.489,0,.7.279.7,1.049l-.069,2.73v5.74l.069,2.872c0,.98-.279,1.189-1.4,1.189l-12.6-.35h-13.792c-.839,0-3.08.071-6.44.211-.91.069-1.96.069-2.45.069-.42,0-.56-.139-.56-.489v-1.33c0-.422.14-.49.56-.49,3.5-.141,3.711-.211,4.69-.7.981-.84,1.12-1.891,1.191-7.281v-26.393c-.071-7.631-.21-7.84-5.111-7.91h-.98c-.28-.07-.35-.141-.35-.561v-1.33c0-.349.14-.42.56-.42l8.89.211h10.362c12.252-.211,13.372-.211,15.822-.351h.35c.7,0,.839.14.839,1.051,0,.14-.069,1.75-.139,2.73v2.381c0,.629,0,1.469.07,2.66l.069,2.449c0,.7-.069.772-.7.772h-2.24c-.56,0-.56,0-.7-.211a1.283,1.283,0,0,1-.141-.49l-.21-1.821c-.98-5.881-2.1-6.72-8.68-6.72h-6.3c-1.12,0-2.031.07-5.181.14l-.07,1.471v1.189l-.07,3.151v12.81h5.04c6.231,0,7-.7,7.211-6.23,0-.7.071-.91.63-.91h1.96c.421,0,.631.211.631.84s-.07,2.1-.141,3.431c-.139,1.68-.139,3.57-.139,4.971v2.24c.07,2.029.139,3.641.139,4.2s-.209.772-.629.772h-1.89c-.49-.071-.49-.071-.771-2.451-.559-3.85-1.61-4.551-7-4.481h-5.04Z" fill="#f1f1f1"/>
    <path id="パス_530" data-name="パス 530" d="M4373.17,3231.684l-3.29,8.752c-1.191,3.291-1.54,4.621-1.54,6.089,0,2.1,1.54,3.012,5.04,3.012.629,0,.839.068.839.35v1.33c0,.42-.21.629-.769.629-.771,0-1.681,0-2.66-.069-1.891-.14-3.431-.211-4.131-.211-.91,0-2.59.071-5.111.211-1.19.069-2.03.069-3.01.069-.49,0-.56-.069-.56-.629v-1.33c0-.35.14-.42.63-.42,3.78-.211,4.551-1.051,7.631-8.471l11.342-27.584c.559-1.4,1.119-2.8,1.679-4.131.771-1.888,1.26-3.218,1.47-3.92.21-.769.351-.91,1.12-.91h3.221c.7,0,.84.07,1.05.49a18.384,18.384,0,0,1,.91,2.522q.946,2.834,1.471,4.2l11.691,30.313c2.45,6.511,3.149,7.281,7,7.492.7,0,.841.07.841.56v1.33c0,.35-.211.489-.631.489-.56,0-1.54,0-2.45-.069-3.151-.14-5.391-.211-6.37-.211-1.12,0-3.291.071-6.371.211-.77.069-1.75.069-2.241.069-.559,0-.7-.139-.7-.559v-1.33c0-.352.07-.42.561-.42a17.036,17.036,0,0,0,3.15-.42c1.4-.422,2.03-1.051,2.03-2.24a17.6,17.6,0,0,0-1.26-4.412l-4.13-10.781Zm8.191-21.073-7.211,18.483h14.632Z" fill="#f1f1f1"/>
    <path id="パス_531" data-name="パス 531" d="M4415.659,3215.232c-.07-7.63-.21-7.839-5.111-7.98h-.98c-.28-.07-.35-.141-.35-.49v-1.33c0-.35.14-.491.56-.491.35,0,1.54,0,2.45.071,2.8.07,4.971.14,6.3.14,1.26,0,3.431-.07,6.65-.14.911-.071,2.171-.071,2.381-.071.42,0,.56.071.56.491v1.33a.6.6,0,0,1-.14.42,1.422,1.422,0,0,1-.35.07h-.77c-4.971.141-5.11.35-5.11,7.98v16.592c0,8.121.42,11.061,1.96,13.791,1.82,3.221,5.6,4.832,11.411,4.832,6.3,0,10.64-1.961,12.951-5.881,1.261-2.17,1.75-5.041,1.75-11.271l-.069-2.031-.351-16.1c-.14-6.019-.35-7-1.82-7.42a21.714,21.714,0,0,0-4.55-.49c-.42,0-.49-.07-.561-.49v-1.33c0-.35.141-.491.63-.491l2.381.071c2.31.07,4.13.14,5.25.14.91,0,2.8-.07,5.531-.14.91-.071,2.17-.071,2.38-.071.49,0,.63.071.63.491v1.33c0,.42-.14.49-.559.49-5.532.141-5.6.211-5.671,7.84v18.553c-.071,6.72-1.05,11.06-3.221,13.72-3.22,3.922-7.841,5.531-15.821,5.531-8.051,0-13.092-1.82-15.892-5.6-1.96-2.8-2.45-5.6-2.45-13.512Z" fill="#f1f1f1"/>
    <path id="パス_532" data-name="パス 532" d="M4487.409,3207.322c-.07,1.26-.07,1.61-.07,2.381v31.852c.07,5.6.21,6.652,1.331,7.351.979.49,1.469.561,4.969.631.491,0,.561.068.561.49v1.33c0,.35-.141.489-.561.489l-2.38-.069c-2.66-.14-4.83-.211-6.791-.211-1.259,0-3.78.071-7.14.211l-2.38.069c-.42,0-.561-.139-.561-.489v-1.33c0-.422.071-.49.561-.49,3.71-.141,4.2-.141,5.11-.7.981-.84,1.12-1.82,1.191-7.281v-28.7c-.071-2.1-.141-3.639-.21-5.53l-6.091.071c-5.811,0-6.931,1.33-7.631,8.82-.07.49-.07.49-.561.56h-2.309c-.7,0-.841-.14-.841-.63l.07-1.821c.071-.769.071-1.959.071-2.8,0-2.169,0-2.169-.071-5.6,0-.84.21-.981,1.471-.981l3.36.071H4499.8c2.031-.071,3.361-.071,4.061-.071.979,0,1.05.071,1.05.631,0,.071,0,.071-.14,1.821v1.75c0,1.82.069,3.779.14,5.041a15.944,15.944,0,0,1,.07,1.679c0,.491-.21.77-.56.77h-2.59c-.561,0-.561-.07-.63-.7-.771-7.631-1.681-8.471-8.472-8.541Z" fill="#f1f1f1"/>
    <path id="パス_533" data-name="パス 533" d="M4518.7,3215.232c-.07-7.63-.21-7.839-5.11-7.98h-.981c-.28-.07-.35-.141-.35-.49v-1.33c0-.35.14-.491.56-.491.351,0,1.54,0,2.45.071,2.8.07,4.971.14,6.3.14,1.26,0,3.431-.07,6.65-.14.911-.071,2.171-.071,2.381-.071.42,0,.56.071.56.491v1.33a.588.588,0,0,1-.14.42,1.422,1.422,0,0,1-.349.07h-.771c-4.971.141-5.11.35-5.11,7.98v26.323c0,7.631.139,7.841,5.11,7.912l.771.07c.42,0,.489.068.489.49v1.33c0,.35-.14.489-.56.489l-2.381-.069c-2.589-.14-4.62-.211-6.37-.211-.98,0-3.36.071-6.581.211l-2.45.069c-.42,0-.56-.139-.56-.489v-1.33a.6.6,0,0,1,.14-.422c0-.068.21-.068.42-.068l.771-.07c4.9-.071,5.04-.281,5.11-7.912Z" fill="#f1f1f1"/>
    <path id="パス_534" data-name="パス 534" d="M4551.954,3241.555c0,5.6.21,6.652,1.26,7.351,1.049.49,1.259.49,4.831.631.42,0,.489.068.559.49v1.33c0,.35-.139.489-.63.489l-2.38-.069c-2.59-.14-4.691-.211-6.441-.211-1.12,0-3.43.071-6.721.211l-2.45.069c-.42,0-.559-.139-.559-.489v-1.33a.6.6,0,0,1,.139-.422c0-.068.21-.068.42-.068l.771-.07c4.9-.071,5.04-.281,5.11-7.912v-26.393c-.07-5.529-.28-6.65-1.33-7.349-.981-.491-1.12-.491-4.551-.631-.42,0-.559-.071-.559-.491v-1.33c0-.349.139-.42.559-.42l8.892.211h10.291c1.05,0,4.759-.07,10.15-.14l5.881-.071c.91,0,1.05.071,1.05,1.051v2.379l-.07,2.8c0,.56,0,1.75.07,3.711l.07.98c0,.84-.14.981-.7.981h-2.66c-.35,0-.491-.141-.491-.772a14.986,14.986,0,0,0-1.469-6.439c-.91-1.682-2.66-2.17-9.031-2.17h-5.391c-2.59,0-2.66,0-4.481.068-.07,3.922-.139,7-.139,9.381v9.313h3.85c7.071.068,8.12-.631,8.12-5.041l.071-1.121c.07-.84.139-.911.77-.911h1.75c.491,0,.63.141.63.7a.342.342,0,0,1-.07.209c-.069,1.541-.069,3.99-.069,5.742,0,.769,0,2.66.069,5.39l.07,3.43c0,.629-.139.77-.7.77h-1.61c-.56,0-.63,0-.63-.561-.35-5.529-1.33-6.3-7.631-6.23h-4.62Z" fill="#f1f1f1"/>
    <path id="パス_535" data-name="パス 535" d="M4589.193,3215.232c-.07-7.63-.21-7.839-5.11-7.98h-.981c-.28-.07-.349-.141-.349-.49v-1.33c0-.35.139-.491.559-.491.351,0,1.54,0,2.45.071,2.8.07,4.971.14,6.3.14,1.26,0,3.431-.07,6.651-.14.91-.071,2.17-.071,2.38-.071.42,0,.56.071.56.491v1.33a.588.588,0,0,1-.14.42,1.422,1.422,0,0,1-.35.07h-.77c-4.971.141-5.11.35-5.11,7.98v16.592c0,8.121.42,11.061,1.96,13.791,1.82,3.221,5.6,4.832,11.411,4.832,6.3,0,10.641-1.961,12.951-5.881,1.26-2.17,1.75-5.041,1.75-11.271l-.069-2.031-.351-16.1c-.139-6.019-.349-7-1.82-7.42a21.724,21.724,0,0,0-4.55-.49c-.421,0-.49-.07-.56-.49v-1.33c0-.35.139-.491.629-.491l2.381.071c2.31.07,4.13.14,5.25.14.91,0,2.8-.07,5.532-.14.91-.071,2.169-.071,2.379-.071.491,0,.63.071.63.491v1.33c0,.42-.139.49-.559.49-5.532.141-5.6.211-5.671,7.84v18.553c-.071,6.72-1.05,11.06-3.221,13.72-3.22,3.922-7.841,5.531-15.821,5.531-8.051,0-13.092-1.82-15.892-5.6-1.96-2.8-2.45-5.6-2.45-13.512Z" fill="#f1f1f1"/>
    <path id="パス_536" data-name="パス 536" d="M4653.1,3248.7c2.59.211,3.71.282,5.181.282h4.55c8.611.07,9.521-.77,10.291-9.731.07-.98.28-1.33.84-1.33h2.661c.42,0,.63.35.63,1.119l-.071,2.731v8.47a2.4,2.4,0,0,1,.071.631c0,.77-.281.979-1.05.979h-.42c-2.311-.139-9.451-.28-10.5-.28h-15.471c-.49,0-2.94.071-6.441.211l-2.45.069c-.42,0-.56-.139-.56-.489v-1.33a.66.66,0,0,1,.14-.49,1.524,1.524,0,0,1,.42-.07h.77c4.9-.141,5.04-.35,5.11-7.912v-26.323c-.07-7.63-.21-7.839-5.11-7.98h-.98c-.281-.07-.35-.141-.35-.49v-1.33c0-.35.14-.491.56-.491.35,0,1.54,0,2.45.071,2.8.07,4.97.14,6.3.14,1.259,0,3.43-.07,6.65-.14.91-.071,2.171-.071,2.381-.071.42,0,.559.071.559.491v1.33a.592.592,0,0,1-.139.42,1.422,1.422,0,0,1-.35.07H4658c-4.971.141-5.111.35-5.111,7.98v26.323c0,.49,0,1.33.14,5.181Z" fill="#f1f1f1"/>
    <path id="パス_537" data-name="パス 537" d="M4282.031,3344.7c2.59.211,3.71.282,5.181.282h4.549c8.612.07,9.522-.77,10.291-9.731.071-.98.281-1.33.841-1.33h2.66c.42,0,.63.35.63,1.119l-.07,2.731v8.47a2.411,2.411,0,0,1,.07.631c0,.77-.28.979-1.05.979h-.419c-2.311-.139-9.452-.28-10.5-.28h-15.471c-.49,0-2.941.071-6.442.211l-2.45.069c-.42,0-.559-.139-.559-.489v-1.33a.663.663,0,0,1,.139-.49,1.524,1.524,0,0,1,.42-.07h.771c4.9-.141,5.04-.35,5.11-7.912v-26.323c-.07-7.63-.21-7.839-5.11-7.98h-.981c-.28-.07-.349-.141-.349-.49v-1.33c0-.35.139-.491.559-.491.351,0,1.54,0,2.45.071,2.8.07,4.971.14,6.3.14,1.26,0,3.431-.07,6.651-.14.91-.071,2.171-.071,2.38-.071.42,0,.56.071.56.491v1.33a.585.585,0,0,1-.14.42,1.422,1.422,0,0,1-.349.07h-.771c-4.97.141-5.11.35-5.11,7.98v26.323c0,.49,0,1.33.14,5.181Z" fill="#f1f1f1"/>
    <path id="パス_538" data-name="パス 538" d="M4319.619,3311.232c-.071-7.63-.21-7.839-5.111-7.98h-.98c-.28-.07-.35-.141-.35-.49v-1.33c0-.35.14-.491.56-.491.351,0,1.54,0,2.45.071,2.8.07,4.971.14,6.3.14,1.26,0,3.431-.07,6.65-.14.91-.071,2.171-.071,2.381-.071.42,0,.56.071.56.491v1.33a.592.592,0,0,1-.14.42,1.422,1.422,0,0,1-.35.07h-.77c-4.971.141-5.11.35-5.11,7.98v26.323c0,7.631.139,7.841,5.11,7.912l.77.07c.42,0,.49.068.49.49v1.33c0,.35-.14.489-.56.489l-2.381-.069c-2.59-.14-4.62-.211-6.37-.211-.98,0-3.36.071-6.581.211l-2.45.069c-.42,0-.56-.139-.56-.489v-1.33a.6.6,0,0,1,.14-.422c0-.068.21-.068.42-.068l.77-.07c4.9-.071,5.04-.281,5.111-7.912Z" fill="#f1f1f1"/>
    <path id="パス_539" data-name="パス 539" d="M4352.309,3337.555c0,5.6.21,6.652,1.26,7.351,1.05.49,1.26.49,4.831.631.42,0,.489.068.56.49v1.33c0,.35-.14.489-.63.489l-2.38-.069c-2.591-.14-4.692-.211-6.442-.211-1.12,0-3.429.071-6.72.211l-2.45.069c-.42,0-.56-.139-.56-.489v-1.33a.594.594,0,0,1,.14-.422c0-.068.21-.068.42-.068l.77-.07c4.9-.071,5.04-.281,5.11-7.912v-26.393c-.07-5.529-.28-6.65-1.33-7.349-.98-.491-1.12-.491-4.55-.631-.42,0-.56-.071-.56-.491v-1.33c0-.349.14-.42.56-.42l8.891.211h10.291c1.05,0,4.76-.07,10.151-.14l5.88-.071c.911,0,1.05.071,1.05,1.051v2.379l-.069,2.8c0,.56,0,1.75.069,3.711l.071.98c0,.84-.14.981-.7.981h-2.66c-.349,0-.49-.141-.49-.772a15,15,0,0,0-1.47-6.439c-.91-1.682-2.66-2.17-9.031-2.17h-5.391c-2.589,0-2.66,0-4.48.068-.07,3.922-.14,7-.14,9.381v9.313h3.851c7.07.068,8.12-.631,8.12-5.041l.07-1.121c.071-.84.14-.911.771-.911h1.75c.49,0,.63.141.63.7a.339.339,0,0,1-.071.209c-.069,1.541-.069,3.99-.069,5.742,0,.769,0,2.66.069,5.39l.071,3.43c0,.629-.14.77-.7.77h-1.61c-.559,0-.63,0-.63-.561-.349-5.529-1.33-6.3-7.631-6.23h-4.62Z" fill="#f1f1f1"/>
    <path id="パス_540" data-name="パス 540" d="M4394.449,3340.355v4.762c4.2.139,4.2.139,5.6.139h4.55c8.961.07,9.661-.561,10.642-10.08.07-.7.14-.84.63-.84h2.591c.489,0,.7.279.7,1.049l-.07,2.73v5.74l.07,2.872c0,.98-.28,1.189-1.4,1.189l-12.6-.35h-13.792c-.84,0-3.08.071-6.441.211-.91.069-1.96.069-2.45.069-.42,0-.559-.139-.559-.489v-1.33c0-.422.139-.49.559-.49,3.5-.141,3.711-.211,4.691-.7.98-.84,1.12-1.891,1.19-7.281v-26.393c-.07-7.631-.21-7.84-5.11-7.91h-.981c-.28-.07-.349-.141-.349-.561v-1.33c0-.349.139-.42.559-.42l8.891.211h10.361c12.252-.211,13.372-.211,15.822-.351h.35c.7,0,.84.14.84,1.051,0,.14-.069,1.75-.14,2.73v2.381c0,.629,0,1.469.071,2.66l.069,2.449c0,.7-.069.772-.7.772H4415.8c-.559,0-.559,0-.7-.211a1.3,1.3,0,0,1-.14-.49l-.21-1.821c-.981-5.881-2.1-6.72-8.681-6.72h-6.3c-1.12,0-2.03.07-5.18.14l-.071,1.471v1.189l-.069,3.151v12.81h5.04c6.23,0,7-.7,7.211-6.23,0-.7.07-.91.63-.91h1.96c.421,0,.631.211.631.84s-.071,2.1-.141,3.431c-.14,1.68-.14,3.57-.14,4.971v2.24c.071,2.029.14,3.641.14,4.2s-.21.772-.63.772h-1.89c-.49-.071-.49-.071-.77-2.451-.56-3.85-1.61-4.551-7-4.481h-5.04Z" fill="#f1f1f1"/>
  </g>
</svg>
