<svg xmlns="http://www.w3.org/2000/svg" viewBox="0 0 180 76.07"><defs><style>.cls-1,.cls-2{fill:#282828;}.cls-2{fill-rule:evenodd;}</style></defs><g id="レイヤー_2" data-name="レイヤー 2"><g id="レイヤー_1-2" data-name="レイヤー 1"><path class="cls-1" d="M176.27,2.41h-.78V2.15h1.89v.26h-.79v2.1h-.32Z"/><path class="cls-1" d="M177.65,2.15h.43l.74,2,.75-2H180V4.51h-.3v-2h0l-.74,2h-.27l-.74-2h0v2h-.29Z"/><path class="cls-1" d="M109.78,26.78c-6.81,0-12.39,5.11-12.39,11.39a10.44,10.44,0,0,0,.68,3.71c-1.52.92-3.49,2.23-6,1.61a3.85,3.85,0,0,1-1.67-1,15.45,15.45,0,0,1,.86-4.22,65.75,65.75,0,0,0,2.85-11,64,64,0,0,0,1.12-15.07,31.91,31.91,0,0,0-1.1-7c-.53-1.8-1.85-5-4-5.21-3.39-.33-6.29,4.37-7.07,9.74-.42,2.87-.7,5.76-.86,8.65-.18,3.21-.27,6.42-.35,9.63-.08,3.52-.13,7-.18,10.54,0,.43,0,.87,0,1.3a6.69,6.69,0,0,1-.84,2.61A12.75,12.75,0,0,1,80,43.57l-.13.12h0a2.19,2.19,0,0,1-1.63.92h0c-3.43-1.07,1.4-17.84-6-17.84-4.91,0-8.61,6.66-10.67,11.62.14-2.32.28-4.65.28-6.51,0-1.08,0-4.22-.27-4.39-1-.62-5.25.33-5.85,1.18-.34.48-.63,4.53-.63,6.31A86.34,86.34,0,0,0,56,49.16c.21.39,2.49.39,2.49.39s1.92,0,2.14-.39l.07-.07c.35-1.16,5-15.34,8.46-15.34S67.78,48.1,76,49.44a5.67,5.67,0,0,0,1.1.1h.19A5.14,5.14,0,0,0,82,47.64c.24,3.18.34,6.37.55,9.55.27,4.11.64,8.44,2.3,12.26a11.81,11.81,0,0,0,5,5.69,6.16,6.16,0,0,0,7-.31,9.9,9.9,0,0,0,2.57-3.44,14.65,14.65,0,0,0,1.08-4.51,22.33,22.33,0,0,0-.64-6.81,33.45,33.45,0,0,0-2.32-6.61c-.44-1-.92-1.9-1.45-2.82a18.52,18.52,0,0,0-1.44-2.25,9,9,0,0,0,5.58-3.12,12.81,12.81,0,0,0,9.67,4.28c6.89,0,12.47-5.11,12.47-11.38S116.67,26.78,109.78,26.78Zm-22,9.35c-.08-1-.16-2.19-.21-3.4,0-5.37-.82-27.08,3.14-24.63,1,.61,1.23,4.14,1.3,7.31A53.39,53.39,0,0,1,87.88,37C87.83,36.71,87.79,36.42,87.77,36.13Zm8.29,28.52c0,2.26-.25,4.77-1.53,5.21-5.16,1.8-5.64-13.7-5.83-17.48a44.11,44.11,0,0,1,0-4.6l.31.31C92.44,51.71,96.11,57.8,96.06,64.65Zm13.72-20.21c-2.79,0-5.11-2.87-5.11-6.27s2.32-6.28,5.11-6.28S115,34.68,115,38.17,112.65,44.44,109.78,44.44Z"/><path class="cls-1" d="M173.61,2c-5.25,0-5.65,5.39-5.68,7.32v1.57c0,3.89,0,10.85,0,17.08a13.63,13.63,0,0,0-6.05-1.4c-6.91,0-12.57,5.19-12.57,11.55S155,49.61,161.88,49.61a13.3,13.3,0,0,0,8.6-3.08,11,11,0,0,0,4.06-8.46l.07-1.42v-33C174.61,2,174.61,2,173.61,2ZM161.88,44.43c-2.83,0-5.18-2.91-5.18-6.36s2.35-6.36,5.18-6.36,5.27,2.82,5.27,6.36S164.79,44.43,161.88,44.43Z"/><path class="cls-1" d="M135.75,26.78c-6.82,0-12.4,5.11-12.4,11.39s5.58,11.38,12.4,11.38,12.47-5.11,12.47-11.38S142.64,26.78,135.75,26.78Zm0,17.66c-2.79,0-5.11-2.87-5.11-6.27s2.32-6.28,5.11-6.28,5.19,2.79,5.19,6.28S138.62,44.44,135.75,44.44Z"/><path class="cls-1" d="M54.38,28.92c.06-.65.23-1.25-.18-1.43-2.05-.71-5.82.63-6.29,1.16s-.73,6.19-.73,8c0,.85,0,1.7.08,2.55-2,3.1-4.1,5.5-5.73,5.5S39.72,42,39.72,38.55c0-2.4.83-10.4.27-10.67-1.62-.79-6.1.68-6.37,1.16s-.5,5.69-.5,7.47c0,7.36,1.59,13,6.93,13,3.5,0,6.1-2.46,7.88-4.94.49,3.94.87,4.54.87,4.54a5.69,5.69,0,0,0,2.24.38c1.53,0,3.74-.13,3.67-.59A78.41,78.41,0,0,1,54.38,28.92Z"/><path class="cls-1" d="M20.34,23c-7-2.15-11.19-3.84-11.19-9.21,0-2.56,1.76-6.88,8.34-6.88,5.6,0,10.2,3,11.89,4.24a2.69,2.69,0,0,0,.81-1.21,2.22,2.22,0,0,0-.08-1.43A17.94,17.94,0,0,0,17.32,3.36C6.51,3.36,1.58,9.22,1.58,14.66c0,4.69,2.05,10.83,11.82,13.43,5.75,1.53,9.28,3.84,10.49,6.85a5.53,5.53,0,0,1,.19,3.82c-.17.69-1.84,6.71-10.14,6.71-7.09,0-10.59-3.53-11.67-4.89a1.72,1.72,0,0,0-.32,0A2.47,2.47,0,0,0,0,41.5c1.24,2,5.82,8.3,15.89,8.3C23.68,49.8,32,46.47,32,37.14,32,30,28.19,25.39,20.34,23Z"/><path class="cls-1" d="M107.55,56.29v2.64h2.92l.29,1.74h-3.21V65h-2V54.56h5.81v1.73Z"/><path class="cls-1" d="M123,65.11c-3,0-4.86-2.17-4.86-5.38s1.92-5.41,4.89-5.41,4.87,2.17,4.87,5.38S126,65.11,123,65.11Zm0-9.13c-1.78,0-2.85,1.46-2.85,3.74s1.07,3.73,2.85,3.73,2.86-1.46,2.86-3.73S124.83,56,123.05,56Z"/><path class="cls-1" d="M139.59,65.11c-3,0-4.87-2.17-4.87-5.38s1.93-5.41,4.9-5.41,4.87,2.17,4.87,5.38S142.57,65.11,139.59,65.11Zm0-9.13c-1.77,0-2.85,1.46-2.85,3.74s1.08,3.73,2.85,3.73,2.87-1.46,2.87-3.73S141.38,56,139.6,56Z"/><path class="cls-1" d="M154.58,64.79h-3.3V54.4h3.3c3.61,0,5.48,2.12,5.48,5.18S158.12,64.79,154.58,64.79Zm0-8.75h-1.29v7.11h1.26c2.19,0,3.5-1.11,3.5-3.55A3.19,3.19,0,0,0,154.56,56Z"/><path class="cls-1" d="M170.12,64.88a7.65,7.65,0,0,1-3.27-.72l.3-1.83a6.24,6.24,0,0,0,3,.92c.92,0,1.55-.44,1.55-1.26s-.36-1.09-1.87-1.74c-2-.83-2.83-1.49-2.83-3.1,0-1.84,1.42-2.91,3.36-2.91a5.58,5.58,0,0,1,2.74.63l-.3,1.81a4.59,4.59,0,0,0-2.45-.81c-1,0-1.43.48-1.43,1.11s.33,1,1.78,1.58c2.13.88,2.92,1.62,2.92,3.23C173.62,63.82,172.13,64.88,170.12,64.88Z"/><path class="cls-1" d="M12.8,65a7.51,7.51,0,0,1-3.24-.71l.3-1.81a6.12,6.12,0,0,0,3,.91c.91,0,1.54-.43,1.54-1.25S14,61,12.52,60.39c-2-.82-2.81-1.48-2.81-3.08,0-1.82,1.41-2.88,3.33-2.88a5.48,5.48,0,0,1,2.71.63l-.29,1.79a4.63,4.63,0,0,0-2.44-.8c-1,0-1.41.47-1.41,1.1s.33,1,1.76,1.57c2.12.86,2.89,1.59,2.89,3.19C16.26,63.92,14.78,65,12.8,65Z"/><path class="cls-1" d="M28.72,65a3.8,3.8,0,0,1-4.11-4.16V54.55h2v6.21c0,1.56.72,2.55,2.17,2.55s2.19-.93,2.19-2.51V54.55h2v6.27A3.87,3.87,0,0,1,28.72,65Z"/><path class="cls-1" d="M44.1,61.06h-.88v3.79h-2V54.55h3c2.36,0,3.77,1.09,3.77,3.17S46.46,61.06,44.1,61.06Zm.06-4.92h-.94v3.32h.87c1.27,0,2-.52,2-1.7S45.43,56.14,44.16,56.14Z"/><path class="cls-1" d="M56.39,64.85V54.55h6v1.67h-4v2.42h3.1l.27,1.7H58.34v2.83h4.17v1.68Z"/><path class="cls-1" d="M78.42,64.58l-2,.37-2.69-4h-.89v3.94h-2V54.55h3.19c2.3,0,3.68,1.09,3.68,3.09a2.88,2.88,0,0,1-2,2.89ZM73.9,56.14H72.81V59.4h1c1.22,0,2-.58,2-1.65S75.14,56.14,73.9,56.14Z"/><path class="cls-2" d="M119.08,28s-7.92-5.27-.41-15.74C118.67,12.27,125.35,22.59,119.08,28Z"/><path class="cls-2" d="M120.74,29.56s.27-5.44,7.64-4.81C128.38,24.75,125.25,31.06,120.74,29.56Z"/></g></g></svg>