<svg xmlns="http://www.w3.org/2000/svg" viewBox="0 0 203.07 51.64"><defs><style>.cls-1{fill:#282828;}</style></defs><g id="レイヤー_2" data-name="レイヤー 2"><g id="レイヤー_1-2" data-name="レイヤー 1"><path class="cls-1" d="M.78,42.34C.27,42.34,0,42.23,0,42v-.45c0-.48.64-1,1.87-1.55a8.65,8.65,0,0,0,2.51-1.54,10.18,10.18,0,0,0,1.54-3.3c.6-1.77,1.72-6.61,3.34-14.56S11.69,8.05,11.69,6.91a2.27,2.27,0,0,0-1.56-2.35C8.65,4,7.92,3.51,7.92,3.13,7.92,2.35,8.61,2,10,2h1.21l.61,0,9.05,0h1.16c.47,0,.7.15.7.42v.44c0,.41-.57.89-1.79,1.47a8.44,8.44,0,0,0-2.56,1.62,12,12,0,0,0-1.7,3.83c-.61,2-1.71,6.8-3.26,14.37S11.14,36,11.14,37.05a2.83,2.83,0,0,0,.72,2.21,9.1,9.1,0,0,0,1.62.84c.92.41,1.39.8,1.39,1.15,0,.72-.66,1.09-2,1.09l-.63,0-2.48-.05H8.41l-.65,0H6.47l-.68,0H4.52L2,42.34Z"/><path class="cls-1" d="M32.89.31c1.52,0,2.28,1,2.28,2.86v.17l0,.22c0,2.11-1,4.43-2.85,7s-3.57,3.78-5,3.78H27c-.46,0-.67-.22-.67-.7v-.1a7.2,7.2,0,0,1,1.12-1.26c2-2,3-3.8,3-5.34a2.72,2.72,0,0,0-.59-1.75,3.25,3.25,0,0,1-.63-2,2.67,2.67,0,0,1,.92-2A3.45,3.45,0,0,1,32.51.31Z"/><path class="cls-1" d="M68.24,23.59c0-2.69-.77-4.06-2.33-4.06s-3.29,1.37-5.23,4.07a27.49,27.49,0,0,0-4.11,8.06c-.1.36-.36,1.47-.72,3.29a15.68,15.68,0,0,1-1.66,4.76,4.08,4.08,0,0,1-3.76,2,1.4,1.4,0,0,1-1.6-1.55,17,17,0,0,1,1.05-4.08c.7-2.06,1.16-3.48,1.38-4.3,1.32-5.1,2-8.46,2-10.12A2.32,2.32,0,0,0,52.57,20a2.85,2.85,0,0,0-2.08-.68A6.48,6.48,0,0,0,47,20.91a18,18,0,0,0-3.81,4C42,26.46,40.77,29.49,39.41,34S36.93,40.63,36,40.63c-.56,0-.85-1-.85-2.88a45,45,0,0,1,1-10.56,14.45,14.45,0,0,0,.28-3.28l.1-.86a14.34,14.34,0,0,0,.17-1.59l-.05-.62a11,11,0,0,1,0-1.11,2.76,2.76,0,0,1,.6-1.5,2.61,2.61,0,0,1,2.16-.83,1.67,1.67,0,0,1,1.79,1.54c.22,1.31.77,2,1.58,2a29.25,29.25,0,0,0,4-2.65c2.49-1.75,4.58-2.64,6.28-2.64a4.72,4.72,0,0,1,3.86,1.61A8.23,8.23,0,0,1,58,19.69c.35,1.18.68,1.77,1,1.77l2.43-1.93c2.67-2.06,5.14-3.1,7.34-3.1,3.23,0,4.84,2,4.84,6a31.33,31.33,0,0,1-1,6.14,33.17,33.17,0,0,0-1,6.11c0,2.61.52,3.93,1.51,3.93.28,0,.4.09.4.27a1,1,0,0,1-.44.67,6.16,6.16,0,0,1-3.48,1.28,2.63,2.63,0,0,1-2.49-1.35,5.63,5.63,0,0,1-.75-2.83,31.76,31.76,0,0,1,.94-5.87A37.07,37.07,0,0,0,68.24,23.59Z"/><path class="cls-1" d="M116.82,2.74a2,2,0,0,1-.65,1.62,2,2,0,0,1-1.25.56,4.65,4.65,0,0,1-2-.76,4.82,4.82,0,0,0-2.29-.78c-1.65,0-3.06,1-4.21,3.08a13.82,13.82,0,0,0-1.71,6.64,2.23,2.23,0,0,0,.71,1.8,5.07,5.07,0,0,0,2.35.86c1.11.2,1.68.5,1.68.92,0,.65-1.06,1.34-3.21,2.06a5,5,0,0,0-1.61.88,10,10,0,0,0-2.77,4.05c-.15.33-.55,2-1.22,5.15q-3.37,15.59-5.79,19.3a8.3,8.3,0,0,1-2.65,2.52,6.46,6.46,0,0,1-3.21,1A3.43,3.43,0,0,1,86.77,51c-.46-.45-.7-.79-.7-1,0-1,.53-1.45,1.56-1.45a4,4,0,0,0,3-1.77,18.49,18.49,0,0,0,2.45-4.85A95.48,95.48,0,0,0,95.6,31.63a68.42,68.42,0,0,0,1.47-9,9.63,9.63,0,0,0-.57-3.31,5.47,5.47,0,0,0-1-1.85c-.3-.22-.45-.42-.45-.56s.57-.71,1.68-1.37a7.47,7.47,0,0,0,2.37-2.11,20.54,20.54,0,0,0,1-2.11c.51-1.19,1.12-2.5,1.84-3.91a14.59,14.59,0,0,1,3.12-4,11.6,11.6,0,0,1,4-2.6A11.34,11.34,0,0,1,113.13,0,4.45,4.45,0,0,1,116,.71a1.84,1.84,0,0,1,.84,1.3Z"/><path class="cls-1" d="M119.29,15.64A3.21,3.21,0,0,1,122.11,17a5.94,5.94,0,0,1,.49,3,6.84,6.84,0,0,0,.15,2.26c.1,0,.32-.22.7-.7,2.77-3.54,5.36-5.3,7.73-5.3,1.21,0,1.81.46,1.81,1.38v.27a2.44,2.44,0,0,1-1.46,2.06,5.1,5.1,0,0,1-2.47.39,4.6,4.6,0,0,0-3,1,14.66,14.66,0,0,0-2.74,3.59,23.84,23.84,0,0,0-2.23,4.52,35.49,35.49,0,0,0-1.22,5.77,29.84,29.84,0,0,1-.77,4.21c-.8,1.95-2,2.91-3.59,2.91H115a1.61,1.61,0,0,1-1.85-1.81V40A59.48,59.48,0,0,1,115.28,32c1.45-4.73,2.17-8.09,2.17-10a1.91,1.91,0,0,0-1.31-1.81c-.87-.41-1.31-.9-1.31-1.5a1.92,1.92,0,0,1,.8-1.54A5.73,5.73,0,0,1,119.29,15.64Z"/><path class="cls-1" d="M148.82,15.19H150a7.3,7.3,0,0,1,5.72,2.58,9.39,9.39,0,0,1,2.31,6.56v.84a16,16,0,0,1-1.36,6.31,18.76,18.76,0,0,1-8.54,9.7,11.91,11.91,0,0,1-5.46,1.45h-.88a8.26,8.26,0,0,1-6-2.42,8.68,8.68,0,0,1-2.42-6.32V32.62q0-6.34,5.06-12.24a15.87,15.87,0,0,1,4.8-3.7A11.87,11.87,0,0,1,148.82,15.19Zm-10.7,17.73v.65a7.54,7.54,0,0,0,1.32,4.75A4.26,4.26,0,0,0,143,40h.33c2.29,0,4.44-1.43,6.47-4.25a17.63,17.63,0,0,0,2.66-5.55,20.81,20.81,0,0,0,.88-5.08v-.94a8.21,8.21,0,0,0-1.18-4.51,3.7,3.7,0,0,0-3.36-1.88h-.61a6.31,6.31,0,0,0-3.59,1.3,11.67,11.67,0,0,0-3.24,3.41A18.87,18.87,0,0,0,138.12,32.92Z"/><path class="cls-1" d="M196.79,23.59c0-2.69-.77-4.06-2.33-4.06s-3.29,1.37-5.23,4.07a27,27,0,0,0-4.11,8.06c-.12.36-.37,1.47-.72,3.29a14.92,14.92,0,0,1-1.68,4.76,4,4,0,0,1-3.74,2,1.38,1.38,0,0,1-1.58-1.55,16.32,16.32,0,0,1,1-4.08c.67-2.06,1.15-3.48,1.37-4.3,1.31-5.1,2-8.46,2-10.12a2.27,2.27,0,0,0-.7-1.66,2.76,2.76,0,0,0-2-.68,6.51,6.51,0,0,0-3.55,1.62,17.09,17.09,0,0,0-3.81,4c-1.15,1.56-2.38,4.59-3.75,9.06s-2.49,6.67-3.37,6.67c-.56,0-.85-1-.85-2.88a45.18,45.18,0,0,1,1-10.56,13.2,13.2,0,0,0,.3-3.28l.1-.86c.11-.84.16-1.36.16-1.59l0-.62c0-.25,0-.62,0-1.11a2.5,2.5,0,0,1,.64-1.5,2.44,2.44,0,0,1,2.11-.83,1.67,1.67,0,0,1,1.81,1.54c.22,1.31.75,2,1.59,2a31.56,31.56,0,0,0,4-2.65c2.47-1.75,4.57-2.64,6.27-2.64a4.71,4.71,0,0,1,3.85,1.61,7.78,7.78,0,0,1,1.08,2.47c.35,1.18.68,1.77,1,1.77L190,19.53c2.67-2.06,5.13-3.1,7.35-3.1,3.22,0,5.71,2,5.71,6a30.56,30.56,0,0,1-1,6.14,32.31,32.31,0,0,0-1,6.11c0,2.61.51,3.93,1.51,3.93.27,0,.44.09.44.27s-.17.43-.47.67a9,9,0,0,1-4.4,1.28,2.59,2.59,0,0,1-2.45-1.35,5.46,5.46,0,0,1-.78-2.83,35.42,35.42,0,0,1,.93-5.87A34.54,34.54,0,0,0,196.79,23.59Z"/></g></g></svg>