<svg xmlns="http://www.w3.org/2000/svg" viewBox="0 0 257.7 69.49"><defs><style>.cls-1{fill:#282828;}</style></defs><g id="レイヤー_2" data-name="レイヤー 2"><g id="レイヤー_1-2" data-name="レイヤー 1"><polygon class="cls-1" points="6.77 64.88 1.74 57.83 0 57.83 0 68.27 1.92 68.27 1.92 61.42 6.8 68.27 8.68 68.27 8.68 57.83 6.77 57.83 6.77 64.88"/><path class="cls-1" d="M16.33,57.7a5.21,5.21,0,0,0-3.83,1.58,5.28,5.28,0,0,0,0,7.53,5.48,5.48,0,0,0,7.68,0,5.35,5.35,0,0,0-3.85-9.11Zm0,8.91a3.33,3.33,0,0,1-2.45-1,3.65,3.65,0,0,1,0-5.08,3.42,3.42,0,0,1,4.91,0,3.65,3.65,0,0,1,0,5.08A3.32,3.32,0,0,1,16.33,66.61Z"/><polygon class="cls-1" points="22.97 59.59 26.25 59.59 26.25 68.27 28.16 68.27 28.16 59.59 31.32 59.59 31.32 57.83 22.97 57.83 22.97 59.59"/><path class="cls-1" d="M52,57.7a5.23,5.23,0,0,0-3.84,1.58,5.3,5.3,0,0,0,0,7.53,5.48,5.48,0,0,0,7.68,0A5.35,5.35,0,0,0,52,57.7Zm0,8.91a3.31,3.31,0,0,1-2.45-1,3.62,3.62,0,0,1,0-5.08,3.42,3.42,0,0,1,4.91,0,3.63,3.63,0,0,1,0,5.08A3.28,3.28,0,0,1,52,66.61Z"/><path class="cls-1" d="M64.27,57.7a5.25,5.25,0,0,0-3.84,1.58,5.29,5.29,0,0,0,0,7.53,5.47,5.47,0,0,0,7.67,0,5.3,5.3,0,0,0,0-7.53A5.23,5.23,0,0,0,64.27,57.7Zm0,8.91a3.31,3.31,0,0,1-2.45-1,3.65,3.65,0,0,1,0-5.08,3.42,3.42,0,0,1,4.91,0,3.65,3.65,0,0,1,0,5.08A3.32,3.32,0,0,1,64.27,66.61Z"/><polygon class="cls-1" points="78.18 57.83 76.26 57.83 76.26 68.27 82.86 68.27 82.86 66.52 78.18 66.52 78.18 57.83"/><rect class="cls-1" x="85.99" y="57.83" width="1.92" height="10.44"/><polygon class="cls-1" points="112.27 57.83 110.35 57.83 110.35 68.27 116.94 68.27 116.94 66.52 112.27 66.52 112.27 57.83"/><polygon class="cls-1" points="119.32 68.27 125.56 68.27 125.56 66.52 121.24 66.52 121.24 63.93 125.56 63.93 125.56 62.18 121.24 62.18 121.24 59.59 125.56 59.59 125.56 57.83 119.32 57.83 119.32 68.27"/><polygon class="cls-1" points="128.5 69.49 130.22 69.49 131.66 66.48 129.37 66.48 128.5 69.49"/><polygon class="cls-1" points="217.51 61.71 214.56 57.83 212.74 57.83 212.74 68.27 214.65 68.27 214.65 61.03 217.51 64.78 220.37 61.03 220.37 68.27 222.29 68.27 222.29 57.83 220.46 57.83 217.51 61.71"/><path class="cls-1" d="M231.83,64.73a1.81,1.81,0,0,1-.53,1.33,2.48,2.48,0,0,1-3.1,0,1.82,1.82,0,0,1-.54-1.33v-6.9h-1.92v6.9a3.47,3.47,0,0,0,1.08,2.55,5.13,5.13,0,0,0,3.24,1.07,3.54,3.54,0,0,0,2.61-1.06,3.8,3.8,0,0,0,1.08-2.21V57.83h-1.92Z"/><path class="cls-1" d="M241.81,59.49a3.86,3.86,0,0,1,2.54,1.1l.23.2L246,59.58l-.29-.26a5.61,5.61,0,0,0-3.85-1.6A5.23,5.23,0,0,0,238,59.3a5.28,5.28,0,0,0,0,7.51,5.26,5.26,0,0,0,3.84,1.57,5.67,5.67,0,0,0,3.85-1.58l.29-.27-1.37-1.22-.23.21a3.84,3.84,0,0,1-2.54,1.09,3.31,3.31,0,0,1-2.45-1,3.63,3.63,0,0,1,0-5.07A3.32,3.32,0,0,1,241.81,59.49Z"/><polygon class="cls-1" points="254.26 62.18 250.59 62.18 250.59 57.83 248.68 57.83 248.68 68.27 250.59 68.27 250.59 63.93 254.26 63.93 254.26 68.27 256.18 68.27 256.18 57.83 254.26 57.83 254.26 62.18"/><polygon class="cls-1" points="37.47 59.59 40.75 59.59 40.75 68.27 42.66 68.27 42.66 59.59 45.81 59.59 45.81 57.83 37.47 57.83 37.47 59.59"/><polygon class="cls-1" points="90.64 59.59 93.68 59.59 93.68 68.27 95.6 68.27 95.6 59.59 98.52 59.59 98.52 57.83 90.64 57.83 90.64 59.59"/><polygon class="cls-1" points="100.28 59.59 103.32 59.59 103.32 68.27 105.24 68.27 105.24 59.59 108.15 59.59 108.15 57.83 100.28 57.83 100.28 59.59"/><polygon class="cls-1" points="144.39 64.88 139.36 57.83 137.62 57.83 137.62 68.27 139.55 68.27 139.55 61.42 144.43 68.27 146.31 68.27 146.31 57.83 144.39 57.83 144.39 64.88"/><path class="cls-1" d="M154,57.7a5.25,5.25,0,0,0-3.84,1.58,5.3,5.3,0,0,0,0,7.53,5.48,5.48,0,0,0,7.68,0A5.35,5.35,0,0,0,154,57.7Zm0,8.91a3.31,3.31,0,0,1-2.45-1,3.62,3.62,0,0,1,0-5.08,3.41,3.41,0,0,1,4.9,0,3.66,3.66,0,0,1,0,5.08A3.35,3.35,0,0,1,154,66.61Z"/><polygon class="cls-1" points="160.59 59.59 163.86 59.59 163.86 68.27 165.78 68.27 165.78 59.59 168.94 59.59 168.94 57.83 160.59 57.83 160.59 59.59"/><path class="cls-1" d="M189.1,57.7a5.25,5.25,0,0,0-3.84,1.58,5.3,5.3,0,0,0,0,7.53,5.48,5.48,0,0,0,7.68,0,5.29,5.29,0,0,0,0-7.53A5.25,5.25,0,0,0,189.1,57.7Zm0,8.91a3.31,3.31,0,0,1-2.45-1,3.62,3.62,0,0,1,0-5.08,3.42,3.42,0,0,1,4.91,0,3.63,3.63,0,0,1,0,5.08A3.28,3.28,0,0,1,189.1,66.61Z"/><path class="cls-1" d="M201.37,57.7a5.25,5.25,0,0,0-3.84,1.58,5.29,5.29,0,0,0,0,7.53,5.48,5.48,0,0,0,7.68,0,5.32,5.32,0,0,0,0-7.53A5.25,5.25,0,0,0,201.37,57.7Zm0,8.91a3.27,3.27,0,0,1-2.44-1,3.62,3.62,0,0,1,0-5.08,3.41,3.41,0,0,1,4.9,0,3.62,3.62,0,0,1,0,5.08A3.32,3.32,0,0,1,201.37,66.61Z"/><polygon class="cls-1" points="174.57 59.59 177.85 59.59 177.85 68.27 179.76 68.27 179.76 59.59 182.91 59.59 182.91 57.83 174.57 57.83 174.57 59.59"/><polygon class="cls-1" points="30.08 40.51 5.52 40.51 5.52 2.25 0 2.25 0.03 46.01 30.08 46.01 30.08 40.51"/><polygon class="cls-1" points="41.23 46.01 47.3 46.01 62.71 13.45 78.3 46.01 84.34 46.01 62.71 0 41.23 46.01"/><path class="cls-1" d="M185.64,40.28A22.76,22.76,0,0,0,190.51,33a22.72,22.72,0,0,0,0-17.75A23.1,23.1,0,0,0,185.64,8a23.66,23.66,0,0,0-7.28-4.89,22.81,22.81,0,0,0-29.92,12.18,22.66,22.66,0,0,0,0,17.75A22.81,22.81,0,0,0,160.6,45.17a22.8,22.8,0,0,0,17.76,0A23.31,23.31,0,0,0,185.64,40.28Zm1.11-16.15a16.94,16.94,0,0,1-1.37,6.7,18.34,18.34,0,0,1-3.71,5.49A17.92,17.92,0,0,1,176.19,40a17.12,17.12,0,0,1-13.42,0,18.12,18.12,0,0,1-5.49-3.7,17.8,17.8,0,0,1-3.7-5.51,16.46,16.46,0,0,1-1.35-6.69,16.38,16.38,0,0,1,1.36-6.7,17.18,17.18,0,0,1,3.69-5.49,17.61,17.61,0,0,1,5.49-3.71,17.09,17.09,0,0,1,13.41,0,17.91,17.91,0,0,1,5.53,3.71,17.11,17.11,0,0,1,5,12.19Z"/><polygon class="cls-1" points="229.64 46.44 244.89 16.56 251.92 46.01 257.7 46.01 246.65 0.6 229.64 33.53 212.57 0.61 201.53 46.01 207.16 46.01 214.34 16.55 229.64 46.44"/><path class="cls-1" d="M116.8,28.43h9.28V38.7A17.12,17.12,0,0,1,110.14,40a18.06,18.06,0,0,1-5.49-3.7,18,18,0,0,1-3.7-5.51,17.16,17.16,0,0,1,0-13.39,17.29,17.29,0,0,1,9.19-9.2,16.63,16.63,0,0,1,6.7-1.37,17.81,17.81,0,0,1,11.15,4l.55.46,3.59-4.23-.56-.47c-.53-.46-1.09-.87-1.65-1.28a25.45,25.45,0,0,0-6.62-3.14,22.8,22.8,0,0,0-15.43.88A23.25,23.25,0,0,0,100.66,8a23.66,23.66,0,0,0-4.87,7.24,22.85,22.85,0,0,0,0,17.73A23,23,0,0,0,108,45.17a22.23,22.23,0,0,0,8.88,1.8,23.28,23.28,0,0,0,7.78-1.32,22.22,22.22,0,0,0,6.84-3.95l.25-.22V22.87H116.8Z"/></g></g></svg>