<svg xmlns="http://www.w3.org/2000/svg" viewBox="0 0 199.22 69.03"><defs><style>.cls-1{fill:#282828;stroke:#282828;stroke-width:0.21px;}</style></defs><g id="レイヤー_2" data-name="レイヤー 2"><g id="レイヤー_1-2" data-name="レイヤー 1"><path class="cls-1" d="M25.54,10.19c0-1.58,0-2.88-.11-3.92a6.85,6.85,0,0,0-.6-2.51,3,3,0,0,0-1.41-1.41,8,8,0,0,0-2.58-.62V1.08c1.24.06,2.47.11,3.69.14s2.44.05,3.67.05c1,0,2,0,3-.05s2-.08,2.93-.14v.65a7.38,7.38,0,0,0-2.47.62,2.87,2.87,0,0,0-1.36,1.41,7.13,7.13,0,0,0-.56,2.52c-.08,1-.11,2.34-.11,3.92V29.06c0,1.58,0,2.89.11,3.92a6.68,6.68,0,0,0,.59,2.52,3,3,0,0,0,1.41,1.41,8.12,8.12,0,0,0,2.62.62v.65c-1.14-.06-2.28-.11-3.43-.14s-2.28,0-3.42,0-2.23,0-3.3,0-2.17.08-3.25.14v-.65a7.45,7.45,0,0,0,2.52-.62,3.09,3.09,0,0,0,1.37-1.42,6.86,6.86,0,0,0,.6-2.52c.07-1,.11-2.35.11-3.94V18.84H8.86V29c0,1.59,0,2.9.11,3.94a6.86,6.86,0,0,0,.6,2.52A2.93,2.93,0,0,0,11,36.91a8,8,0,0,0,2.6.62v.65c-1.14-.06-2.28-.11-3.42-.14s-2.29,0-3.43,0-2.22,0-3.3,0-2.16.08-3.25.14v-.65a7.45,7.45,0,0,0,2.53-.62A3,3,0,0,0,4.1,35.5,7.09,7.09,0,0,0,4.68,33c.08-1,.11-2.34.11-3.92V10.2c0-1.58,0-2.89-.11-3.92A7.09,7.09,0,0,0,4.1,3.76,3,3,0,0,0,2.68,2.35,8.12,8.12,0,0,0,.11,1.73V1.08c1.22.06,2.45.11,3.67.14s2.44.05,3.69.05c1,0,2,0,3-.05s2-.08,2.92-.14v.65a7.32,7.32,0,0,0-2.47.62A2.81,2.81,0,0,0,9.55,3.76,7.31,7.31,0,0,0,9,6.27c-.07,1-.11,2.34-.11,3.92v6.88H25.54Z"/><path class="cls-1" d="M46.27,35.77a20.29,20.29,0,0,0,2.25.48,16.23,16.23,0,0,0,2.75.25,18.74,18.74,0,0,0,4.83-.56A12.15,12.15,0,0,0,60,34.13,16.8,16.8,0,0,0,63.38,31a38.08,38.08,0,0,0,3.2-4.63l.49.51L63,38.18c-.5-.07-1-.11-1.57-.14s-1.07,0-1.58,0H42.88c-.88,0-1.76,0-2.62,0s-1.74.07-2.62.14v-.65a7.45,7.45,0,0,0,2.52-.62,2.9,2.9,0,0,0,1.35-1.41A7.33,7.33,0,0,0,42.08,33c.07-1,.11-2.34.11-3.92V10.2c0-1.58,0-2.89-.11-3.92a7.33,7.33,0,0,0-.57-2.52,2.85,2.85,0,0,0-1.39-1.41,8,8,0,0,0-2.56-.62V1.08c1,0,2,.06,2.9.07l2.85.05,3.11,0q1.65,0,3.72,0,3.15,0,6.31-.05t6.39-.14c-.06.88-.08,1.69-.08,2.45V5.79c0,.83,0,1.67.08,2.52S63,10.09,63,11.1l-.59.23a15.91,15.91,0,0,0-1.54-4.44,8.44,8.44,0,0,0-2.26-2.68,7.21,7.21,0,0,0-2.81-1.3,14.79,14.79,0,0,0-3.25-.34,54,54,0,0,0-6.3.37V17c.6,0,1.18,0,1.72-.05s1.14,0,1.74,0a7.3,7.3,0,0,0,4.91-1.56c1.21-1,2-2.93,2.22-5.68h.53c0,1.36,0,2.71,0,4.07s-.05,2.7-.05,4,0,2.72.05,4.07,0,2.72,0,4.07h-.53a21.25,21.25,0,0,0-1-3.87,5.39,5.39,0,0,0-1.48-2.29,4.9,4.9,0,0,0-2.19-1.07,14.42,14.42,0,0,0-3.07-.29H46.27Z"/><path class="cls-1" d="M100.06,38H92c-1.87-2.55-3.61-5.21-5.26-8a63.84,63.84,0,0,1-4.3-8.69,11.49,11.49,0,0,1-1.15-.08c-.46-.06-.95-.15-1.44-.26s-1-.24-1.44-.37-.86-.26-1.16-.37l0,8.8c0,1.58,0,2.88.11,3.92a6.85,6.85,0,0,0,.6,2.51,2.89,2.89,0,0,0,1.41,1.41,8.12,8.12,0,0,0,2.61.62v.65c-1.14-.07-2.28-.11-3.42-.14s-2.29,0-3.43,0-2.22,0-3.3,0-2.16.07-3.25.14v-.65a7.45,7.45,0,0,0,2.53-.62,3,3,0,0,0,1.37-1.42A7,7,0,0,0,73,33c.08-1,.11-2.34.11-3.92V10.2c0-1.58,0-2.89-.11-3.92a7.08,7.08,0,0,0-.59-2.52,3,3,0,0,0-1.37-1.41,7.45,7.45,0,0,0-2.53-.62V1.08c1,.06,1.93.11,2.89.14s1.92.05,2.88.05c.43,0,1,0,1.57-.09s1.31-.12,2-.19,1.42-.14,2.14-.2S81.41.71,82,.71a13.69,13.69,0,0,1,4,.62,10.31,10.31,0,0,1,3.63,2,10.65,10.65,0,0,1,2.66,3.45,11.08,11.08,0,0,1,1,5,10.28,10.28,0,0,1-.56,3.48,8.87,8.87,0,0,1-1.51,2.69A8.55,8.55,0,0,1,89,19.76a10.17,10.17,0,0,1-2.7,1.08q.93,2,2.4,4.74A47.56,47.56,0,0,0,92,30.81a26.19,26.19,0,0,0,3.84,4.38,7.89,7.89,0,0,0,4.25,2.15ZM77.22,18.34a10.63,10.63,0,0,0,2.08.71,9.07,9.07,0,0,0,2.11.25,7.14,7.14,0,0,0,5.43-2q1.95-2,2-6.62a9.2,9.2,0,0,0-.58-3.37,7.93,7.93,0,0,0-1.55-2.61A7,7,0,0,0,84.41,3a6.26,6.26,0,0,0-2.7-.6,19.78,19.78,0,0,0-2.21.12A7.88,7.88,0,0,0,77.37,3c0,1.8-.08,3.64-.11,5.48s0,3.85,0,6Z"/><path class="cls-1" d="M105.53,10.2c0-1.58,0-2.89-.13-3.92a6.5,6.5,0,0,0-.58-2.52,3,3,0,0,0-1.37-1.41,7.45,7.45,0,0,0-2.53-.62V1c.94.09,1.86.16,2.75.21s1.82.07,2.76.07A27.36,27.36,0,0,0,110,1,31.27,31.27,0,0,1,113.92.8a16.94,16.94,0,0,1,4,.51A11.39,11.39,0,0,1,121.78,3a9.83,9.83,0,0,1,2.94,3.25,10.09,10.09,0,0,1,1.18,5.09,8.84,8.84,0,0,1-1.29,4.6,7.81,7.81,0,0,1-1.43,1.73,5.9,5.9,0,0,1-1.76,1.12v.12a10.3,10.3,0,0,1,4.87,3.81,11.9,11.9,0,0,1,1.76,6.81,9.29,9.29,0,0,1-.91,4.33,7.7,7.7,0,0,1-2.4,2.77,9.6,9.6,0,0,1-3.39,1.47,18,18,0,0,1-3.89.42q-3.08,0-6.13-.28c-2-.18-4.08-.28-6.12-.28-.69,0-1.39,0-2.1,0s-1.4.08-2.09.14v-.65a7.32,7.32,0,0,0,2.47-.62,2.91,2.91,0,0,0,1.36-1.41A6.93,6.93,0,0,0,105.4,33c.09-1,.13-2.34.13-3.92Zm4.06,7.1a7.92,7.92,0,0,0,2.49,1.07,11.63,11.63,0,0,0,2.57.28,6.37,6.37,0,0,0,4.81-2,8.08,8.08,0,0,0,1.91-5.79,9.18,9.18,0,0,0-.62-3.45,8.72,8.72,0,0,0-1.68-2.63,7.08,7.08,0,0,0-2.42-1.7,7.18,7.18,0,0,0-2.86-.59,18.46,18.46,0,0,0-2.12.11,7.41,7.41,0,0,0-2.08.56Zm0,17.65a2,2,0,0,0,.84.77,7.84,7.84,0,0,0,1.54.62,14.28,14.28,0,0,0,1.89.4,14.65,14.65,0,0,0,1.89.14,7.09,7.09,0,0,0,5.71-2.41q2.06-2.4,2.06-7a8.79,8.79,0,0,0-1.22-4.55,13.37,13.37,0,0,0-2.8-3.42c-.72.15-1.45.29-2.17.42a11.61,11.61,0,0,1-2.22.2,18.84,18.84,0,0,1-2.8-.2,9.2,9.2,0,0,1-2.72-.83Z"/><path class="cls-1" d="M140,21.63l-3,10.22c-.09.3-.18.57-.26.79a2.5,2.5,0,0,0-.11.74,3.12,3.12,0,0,0,.48,1.75,4.43,4.43,0,0,0,1.15,1.21,6.41,6.41,0,0,0,1.4.77,8.65,8.65,0,0,0,1.21.39v.68c-.91-.07-1.81-.11-2.71-.14s-1.81,0-2.75,0-1.78,0-2.62,0-1.78.07-2.73.14V37.5a5.89,5.89,0,0,0,2.32-1.21A7.41,7.41,0,0,0,134,34.34a14.84,14.84,0,0,0,1.11-2.51c.31-.92.62-1.85.92-2.79l7.8-24c.08-.26.17-.51.24-.73a1.85,1.85,0,0,0,.11-.62,3.32,3.32,0,0,0-.16-.85,5.55,5.55,0,0,0-.38-1,8.29,8.29,0,0,0,2-.73q.85-.45,1.89-1l9.37,32.3a8.9,8.9,0,0,0,1.75,3.47A5.4,5.4,0,0,0,162,37.53v.65c-1.21-.07-2.4-.11-3.57-.14s-2.37,0-3.6,0c-.81,0-1.52,0-2.12,0l-1.62,0-1.37,0c-.44,0-.92,0-1.42.07v-.65a7.14,7.14,0,0,0,3.17-1.22,3,3,0,0,0,1.28-2.52,2.83,2.83,0,0,0-.15-.9,7.13,7.13,0,0,1-.25-.85L149.4,21.63Zm4.87-16L140.43,20h8.48Z"/><path class="cls-1" d="M162.6,1.08c1.05.06,2.05.11,3,.14s2,.05,3.27.05c.67,0,1.31,0,1.95-.05s1.27-.08,1.93-.14c.39.68,1,1.7,1.94,3.07l3.09,4.7,3.73,5.66c1.31,2,2.6,4,3.82,5.82s2.37,3.64,3.41,5.27,1.85,3,2.45,4h.06c0-1.13,0-2.25,0-3.36s0-2.22,0-3.35V16.38c0-2.4-.06-4.5-.19-6.28a19.12,19.12,0,0,0-.82-4.48,6.27,6.27,0,0,0-1.71-2.76,5,5,0,0,0-2.9-1.13V1.08c1.05.06,2.1.11,3.17.14s2.13.05,3.18.05,1.94,0,2.94-.05,2-.08,2.92-.14v.65a7.91,7.91,0,0,0-2.36.73A4.37,4.37,0,0,0,194,3.79a5.33,5.33,0,0,0-.8,2A14.33,14.33,0,0,0,193,8.73V38.64h-1.67q-2.47-4.85-5.24-9.43t-5.5-8.67q-2.76-4.08-5.3-7.6c-1.71-2.35-3.23-4.44-4.59-6.28,0,1,0,1.93,0,2.87s0,1.9,0,2.88v9.85q0,5,.16,7.89a14.78,14.78,0,0,0,.77,4.48,3.52,3.52,0,0,0,1.82,2.08,12.45,12.45,0,0,0,3.29.82v.65c-1.5-.06-3-.11-4.46-.14s-2.94,0-4.43,0c-.86,0-1.72,0-2.56,0s-1.69.08-2.57.14v-.65c1.05-.19,2-.37,2.71-.54a4.44,4.44,0,0,0,1.86-.85,3.54,3.54,0,0,0,1.13-1.72,10.43,10.43,0,0,0,.42-3.05l.52-25.91a11.47,11.47,0,0,0-3.12-2.32,25.34,25.34,0,0,0-3.52-1.41Z"/><path class="cls-1" d="M7.16,67.1c.34.08.84.17,1.51.26a13.81,13.81,0,0,0,1.84.14,15.94,15.94,0,0,0,3.25-.31,9.42,9.42,0,0,0,2.63-1,11,11,0,0,0,2.25-1.74,21.25,21.25,0,0,0,2.14-2.53l.34.27-2.75,6.21c-.35,0-.7-.06-1.06-.07l-1.06,0H4.88c-.59,0-1.17,0-1.76,0s-1.17,0-1.75.07v-.35a6,6,0,0,0,1.69-.34A1.84,1.84,0,0,0,4,66.94a3.37,3.37,0,0,0,.38-1.37c.05-.57.07-1.28.07-2.15V53.09c0-.86,0-1.58-.07-2.14A3.38,3.38,0,0,0,4,49.57,1.73,1.73,0,0,0,3,48.8a6,6,0,0,0-1.72-.34V48.1l1.95,0,1.91,0,2.09,0H9.75l4.23,0c1.42,0,2.85,0,4.3-.08,0,.48-.06.93-.06,1.34v1.24q0,.68.06,1.38t.12,1.53l-.4.12a7.83,7.83,0,0,0-1-2.43,4.9,4.9,0,0,0-1.51-1.47,5.32,5.32,0,0,0-1.89-.71,12.54,12.54,0,0,0-2.17-.18c-1.39,0-2.8.06-4.23.2v7.69c.4,0,.78,0,1.16,0s.75,0,1.15,0a5.64,5.64,0,0,0,3.3-.85,4.14,4.14,0,0,0,1.49-3.11h.35c0,.75,0,1.49,0,2.23s0,1.48,0,2.2,0,1.49,0,2.24,0,1.48,0,2.23h-.35a10,10,0,0,0-.64-2.12,3.05,3.05,0,0,0-1-1.26,3.57,3.57,0,0,0-1.47-.58,11.16,11.16,0,0,0-2.07-.16H7.16Z"/><path class="cls-1" d="M35.75,54a11.48,11.48,0,0,0-1-2,8.39,8.39,0,0,0-1.44-1.74A6.79,6.79,0,0,0,31.48,49a5.14,5.14,0,0,0-2.16-.46,5.54,5.54,0,0,0-2.83.65,2.44,2.44,0,0,0-1.1,2.32,2.92,2.92,0,0,0,.87,2.18,8.79,8.79,0,0,0,2.17,1.52c.87.44,1.81.86,2.82,1.27a15.56,15.56,0,0,1,2.82,1.44A7.73,7.73,0,0,1,36.24,60a5.27,5.27,0,0,1,.88,3.11,6,6,0,0,1-.54,2.62,5.1,5.1,0,0,1-1.46,1.81,6.2,6.2,0,0,1-2.14,1,9.94,9.94,0,0,1-4.18.21c-.55-.09-1.07-.19-1.58-.3l-1.37-.3a4.79,4.79,0,0,0-1-.13,1.72,1.72,0,0,0-.64.11l-.63.24c-.18-1.19-.39-2.35-.63-3.49s-.5-2.28-.76-3.44l.39-.21a24.42,24.42,0,0,0,1.32,2.24,13.19,13.19,0,0,0,1.73,2.17,9.68,9.68,0,0,0,2.13,1.62,5,5,0,0,0,2.53.65,6.74,6.74,0,0,0,1.69-.2,4.13,4.13,0,0,0,1.43-.63,3.18,3.18,0,0,0,1-1.13,3.71,3.71,0,0,0,.36-1.72,3.49,3.49,0,0,0-.87-2.44,8.79,8.79,0,0,0-2.18-1.69,27.22,27.22,0,0,0-2.81-1.35A19.47,19.47,0,0,1,26.1,57.4a8.32,8.32,0,0,1-2.18-1.82,4.06,4.06,0,0,1-.87-2.67,5.23,5.23,0,0,1,.45-2.19A5.17,5.17,0,0,1,24.71,49,5.47,5.47,0,0,1,26.5,48a6.23,6.23,0,0,1,2.15-.37,11.22,11.22,0,0,1,2,.16c.59.1,1.17.21,1.74.34l1.72.35a9.43,9.43,0,0,0,1.81.17c0,.91,0,1.8,0,2.69s.09,1.77.19,2.66Z"/><path class="cls-1" d="M53.67,54a11.48,11.48,0,0,0-1-2,9.07,9.07,0,0,0-1.44-1.74A6.69,6.69,0,0,0,49.39,49a5.08,5.08,0,0,0-2.16-.46,5.5,5.5,0,0,0-2.82.65,2.44,2.44,0,0,0-1.1,2.32,2.88,2.88,0,0,0,.87,2.18,8.61,8.61,0,0,0,2.17,1.52c.86.44,1.8.86,2.82,1.27A15.9,15.9,0,0,1,52,57.94,7.86,7.86,0,0,1,54.16,60,5.26,5.26,0,0,1,55,63.1a6,6,0,0,1-.53,2.62A5.1,5.1,0,0,1,53,67.53a6.2,6.2,0,0,1-2.14,1,10,10,0,0,1-4.19.21c-.54-.09-1.06-.19-1.57-.3l-1.37-.3a4.79,4.79,0,0,0-1-.13,1.69,1.69,0,0,0-.64.11l-.63.24c-.19-1.19-.39-2.35-.64-3.49s-.49-2.28-.75-3.44l.39-.21c.36.7.8,1.45,1.31,2.24a13.79,13.79,0,0,0,1.74,2.17A9.68,9.68,0,0,0,45.7,67.3a5,5,0,0,0,2.53.65,6.8,6.8,0,0,0,1.69-.2,4.13,4.13,0,0,0,1.43-.63,3.06,3.06,0,0,0,1-1.13,3.59,3.59,0,0,0,.37-1.72,3.45,3.45,0,0,0-.88-2.44,8.55,8.55,0,0,0-2.17-1.69,26.45,26.45,0,0,0-2.82-1.35A20.54,20.54,0,0,1,44,57.4a8.44,8.44,0,0,1-2.17-1.82A4.06,4.06,0,0,1,41,52.91a5.23,5.23,0,0,1,.45-2.19A5.17,5.17,0,0,1,42.63,49,5.47,5.47,0,0,1,44.42,48a6.23,6.23,0,0,1,2.15-.37,11.22,11.22,0,0,1,2,.16c.59.1,1.17.21,1.74.34l1.72.35a9.43,9.43,0,0,0,1.81.17c0,.91,0,1.8,0,2.69s.09,1.77.19,2.66Z"/><path class="cls-1" d="M63.69,67.1c.35.08.85.17,1.51.26a14,14,0,0,0,1.85.14,16,16,0,0,0,3.25-.31,9.35,9.35,0,0,0,2.62-1,10.76,10.76,0,0,0,2.26-1.74,21.25,21.25,0,0,0,2.14-2.53l.33.27L74.9,68.41c-.34,0-.69-.06-1.05-.07l-1.06,0H61.41c-.58,0-1.17,0-1.75,0s-1.17,0-1.75.07v-.35a6.08,6.08,0,0,0,1.69-.34,1.84,1.84,0,0,0,.91-.78,3.38,3.38,0,0,0,.37-1.37c0-.57.08-1.28.08-2.15V53.09c0-.86,0-1.58-.08-2.14a3.38,3.38,0,0,0-.37-1.38,1.77,1.77,0,0,0-.94-.77,6.12,6.12,0,0,0-1.72-.34V48.1l1.94,0,1.91,0,2.1,0h2.49l4.23,0c1.41,0,2.84,0,4.29-.08,0,.48-.06.93-.06,1.34v1.24q0,.68.06,1.38t.12,1.53l-.39.12a7.83,7.83,0,0,0-1-2.43A5.13,5.13,0,0,0,72,49.81a5.47,5.47,0,0,0-1.89-.71,12.66,12.66,0,0,0-2.18-.18c-1.39,0-2.8.06-4.23.2v7.69c.4,0,.79,0,1.16,0s.76,0,1.16,0a5.64,5.64,0,0,0,3.3-.85,4.17,4.17,0,0,0,1.49-3.11h.35c0,.75,0,1.49,0,2.23s0,1.48,0,2.2,0,1.49,0,2.24,0,1.48,0,2.23H70.8a10,10,0,0,0-.65-2.12,3,3,0,0,0-1-1.26,3.62,3.62,0,0,0-1.48-.58,11.12,11.12,0,0,0-2.06-.16H63.69Z"/><path class="cls-1" d="M78,48.1c.7,0,1.37.06,2,.08l2.2,0,1.3,0c.42,0,.86,0,1.3-.08.26.37.7.93,1.3,1.68l2.07,2.57,2.5,3.1c.89,1.1,1.74,2.17,2.57,3.19s1.59,2,2.28,2.89,1.25,1.62,1.66,2.2h0c0-.62,0-1.23,0-1.84s0-1.21,0-1.83V56.48c0-1.32,0-2.46-.14-3.44a8.49,8.49,0,0,0-.54-2.45,3.4,3.4,0,0,0-1.15-1.52,3.78,3.78,0,0,0-2-.61V48.1c.71,0,1.42.06,2.13.08l2.13,0,2,0c.67,0,1.32,0,2-.08v.36a5.76,5.76,0,0,0-1.59.4,2.66,2.66,0,0,0-1,.73,2.62,2.62,0,0,0-.54,1.11,6.14,6.14,0,0,0-.17,1.59V68.67H97.19Q95.53,66,93.68,63.5c-1.23-1.67-2.47-3.25-3.7-4.75s-2.42-2.87-3.55-4.16l-3.08-3.44c0,.54,0,1.06,0,1.58s0,1,0,1.57v5.4c0,1.81,0,3.25.11,4.32a6.94,6.94,0,0,0,.51,2.45,2.16,2.16,0,0,0,1.22,1.14,10.87,10.87,0,0,0,2.21.45v.35c-1,0-2-.06-3-.07s-2,0-3,0c-.58,0-1.15,0-1.72,0s-1.14,0-1.72.07v-.35c.7-.11,1.31-.2,1.81-.3A3.34,3.34,0,0,0,81,67.3a2,2,0,0,0,.75-.94,4.87,4.87,0,0,0,.29-1.67L82.4,50.5a7.6,7.6,0,0,0-2.09-1.27A18.06,18.06,0,0,0,78,48.46Z"/><path class="cls-1" d="M107.41,68.06a6.08,6.08,0,0,0,1.69-.34,1.91,1.91,0,0,0,.92-.78,3.22,3.22,0,0,0,.39-1.37c0-.57.08-1.29.08-2.15V49.07a24.87,24.87,0,0,0-2.66.12,4.33,4.33,0,0,0-1.89.64,4.26,4.26,0,0,0-1.38,1.56,16.52,16.52,0,0,0-1.14,2.88l-.4-.13.43-6c.84,0,1.68.06,2.51.08l2.5,0h7.12l2.39,0c.78,0,1.58,0,2.38-.08l.43,6-.4.13a15.61,15.61,0,0,0-1.16-2.88,4,4,0,0,0-3.28-2.2,26.1,26.1,0,0,0-2.72-.12V63.42c0,.86,0,1.58.08,2.15a3.22,3.22,0,0,0,.39,1.37,1.9,1.9,0,0,0,1,.78,6.58,6.58,0,0,0,1.75.34v.35c-.76,0-1.53-.06-2.29-.07l-2.3,0q-1.12,0-2.22,0c-.72,0-1.45,0-2.17.07Z"/><path class="cls-1" d="M123.06,68.06a6,6,0,0,0,1.69-.34,1.89,1.89,0,0,0,.93-.78,3.22,3.22,0,0,0,.39-1.37c.05-.57.07-1.28.07-2.15V53.09c0-.86,0-1.58-.07-2.14a3.22,3.22,0,0,0-.39-1.38,1.82,1.82,0,0,0-1-.77,6,6,0,0,0-1.72-.34V48.1c.83,0,1.65.06,2.47.08l2.47,0,2,0c.66,0,1.31,0,2-.08v.36a5.65,5.65,0,0,0-1.66.34,1.74,1.74,0,0,0-.91.77A3.38,3.38,0,0,0,129,51c0,.56-.07,1.28-.07,2.14V63.42c0,.87,0,1.58.07,2.15a3.21,3.21,0,0,0,.4,1.37,1.9,1.9,0,0,0,1,.78,6.58,6.58,0,0,0,1.75.34v.35c-.76,0-1.53-.06-2.3-.07s-1.53,0-2.3,0-1.49,0-2.21,0-1.45,0-2.18.07Z"/><path class="cls-1" d="M140,59.35,138,65l-.17.43a1.09,1.09,0,0,0-.07.4,1.49,1.49,0,0,0,.31,1,2.67,2.67,0,0,0,.78.67,5.53,5.53,0,0,0,.93.42,7.1,7.1,0,0,0,.82.21v.37c-.61,0-1.21-.06-1.82-.07s-1.21,0-1.84,0-1.19,0-1.76,0-1.19,0-1.84.07V68a4.13,4.13,0,0,0,1.56-.66A4.64,4.64,0,0,0,136,66.31a7.73,7.73,0,0,0,.73-1.37c.22-.51.42-1,.62-1.53l5.23-13.13.17-.4a.94.94,0,0,0,.07-.34,1.57,1.57,0,0,0-.1-.47,2.8,2.8,0,0,0-.26-.55,6.69,6.69,0,0,0,1.36-.4c.38-.17.81-.34,1.27-.53l6.28,17.68a4.75,4.75,0,0,0,1.18,1.91,4.05,4.05,0,0,0,2.24.88v.35c-.8,0-1.6-.06-2.39-.07s-1.59,0-2.41,0h-1.42l-1.09,0-.92,0-1,0v-.35a5.51,5.51,0,0,0,2.13-.67,1.55,1.55,0,0,0,.87-1.38,1.24,1.24,0,0,0-.11-.49,3.89,3.89,0,0,1-.17-.47l-2-5.7Zm3.26-8.78-3,7.86H146Z"/><path class="cls-1" d="M165.64,48.46a13.78,13.78,0,0,0-2.27.48,2.5,2.5,0,0,0-1.19.69,2,2,0,0,0-.47,1.07,11.31,11.31,0,0,0-.09,1.56V67.1l1.58.27a9.12,9.12,0,0,0,1.56.13,11.51,11.51,0,0,0,3.11-.38,7.54,7.54,0,0,0,2.4-1.11,8.6,8.6,0,0,0,1.95-1.87A27.58,27.58,0,0,0,174,61.49h.45l-2.33,6.92c-.72,0-1.45-.06-2.19-.07s-1.46,0-2.19,0h-8.9l-1.51,0c-.5,0-1,0-1.51.07v-.35a6.65,6.65,0,0,0,1.59-.31,2.76,2.76,0,0,0,.92-.54,1.61,1.61,0,0,0,.44-.81,5,5,0,0,0,.1-1.06V53.09c0-.86,0-1.58-.07-2.14a3.38,3.38,0,0,0-.38-1.38,1.74,1.74,0,0,0-.91-.77,5.66,5.66,0,0,0-1.69-.34V48.1c.79,0,1.57.06,2.34.08l2.35,0,2.56,0c.86,0,1.71,0,2.56-.08Z"/><path class="cls-1" d="M189.1,54a11.48,11.48,0,0,0-1-2,8.68,8.68,0,0,0-1.43-1.74A7,7,0,0,0,184.83,49a5.14,5.14,0,0,0-2.16-.46,5.56,5.56,0,0,0-2.83.65,2.46,2.46,0,0,0-1.1,2.32,2.92,2.92,0,0,0,.87,2.18,9,9,0,0,0,2.17,1.52c.87.44,1.81.86,2.82,1.27a15.56,15.56,0,0,1,2.82,1.44A7.73,7.73,0,0,1,189.59,60a5.2,5.2,0,0,1,.88,3.11,5.86,5.86,0,0,1-.54,2.62,5.1,5.1,0,0,1-1.46,1.81,6.24,6.24,0,0,1-2.13,1,10,10,0,0,1-4.19.21c-.55-.09-1.07-.19-1.57-.3l-1.38-.3a4.79,4.79,0,0,0-1-.13,1.67,1.67,0,0,0-.63.11l-.64.24c-.18-1.19-.39-2.35-.63-3.49s-.5-2.28-.76-3.44l.4-.21a24.18,24.18,0,0,0,1.31,2.24A12.74,12.74,0,0,0,179,65.68a9.23,9.23,0,0,0,2.13,1.62,5,5,0,0,0,2.52.65,6.74,6.74,0,0,0,1.69-.2,4.18,4.18,0,0,0,1.44-.63,3.15,3.15,0,0,0,1-1.13,3.71,3.71,0,0,0,.36-1.72,3.49,3.49,0,0,0-.87-2.44,8.92,8.92,0,0,0-2.17-1.69,28.44,28.44,0,0,0-2.82-1.35,19.47,19.47,0,0,1-2.82-1.39,8.11,8.11,0,0,1-2.17-1.82,4,4,0,0,1-.88-2.67,5.23,5.23,0,0,1,.45-2.19A5.32,5.32,0,0,1,178.06,49a5.52,5.52,0,0,1,1.8-1.07,6.18,6.18,0,0,1,2.14-.37,11.07,11.07,0,0,1,2,.16c.6.1,1.17.21,1.74.34l1.72.35a9.43,9.43,0,0,0,1.81.17c0,.91,0,1.8.05,2.69s.1,1.77.2,2.66Z"/><path class="cls-1" d="M196.2,44.86a3,3,0,1,1-2.95,3,3,3,0,0,1,2.95-3Zm0,.48a2.58,2.58,0,1,0,2.38,2.57,2.47,2.47,0,0,0-2.38-2.57Zm-.55,4.33h-.53V46.28a5.89,5.89,0,0,1,.94-.08,1.67,1.67,0,0,1,1,.26.79.79,0,0,1,.3.7.83.83,0,0,1-.64.82v0c.29.05.49.32.55.82a3,3,0,0,0,.21.84h-.55a2.44,2.44,0,0,1-.22-.87.62.62,0,0,0-.71-.59h-.37Zm0-1.88H196c.43,0,.8-.16.8-.58s-.21-.59-.8-.59l-.38,0Z"/></g></g></svg>