<svg id="グループ_179" data-name="グループ 179" xmlns="http://www.w3.org/2000/svg" width="113.542" height="64.175" viewBox="0 0 113.542 64.175">
  <path id="パス_395" data-name="パス 395" d="M1030.98,343.84h3.353l.678,2h2.052l-3.358-8.974h-2.022l-3.406,8.974h1.975Zm1.683-4.764h.026l1.13,3.293H1031.5Z" transform="translate(-1015.324 -292.933)" fill="#e5e7ea"/>
  <path id="パス_396" data-name="パス 396" d="M1054.158,339.343a2.463,2.463,0,0,0-2.622-2.476H1046.7v8.974h1.973v-3.522h1.985c1.134,0,1.509.727,1.533,1.709a5.688,5.688,0,0,0,.262,1.813h1.975a4.168,4.168,0,0,1-.377-2.127,2.1,2.1,0,0,0-1.3-2.1v-.024A2.208,2.208,0,0,0,1054.158,339.343Zm-3.328,1.572h-2.16V338.4h2.16c.88,0,1.358.376,1.358,1.246C1052.188,340.535,1051.71,340.915,1050.83,340.915Z" transform="translate(-1011.612 -292.933)" fill="#e5e7ea"/>
  <rect id="長方形_136" data-name="長方形 136" width="1.971" height="8.973" transform="translate(56.724 43.934)" fill="#e5e7ea"/>
  <path id="パス_397" data-name="パス 397" d="M1084.962,338.527v-1.66h-6.711v8.973h6.811v-1.659h-4.834v-2.2h4.345v-1.532h-4.345v-1.924Z" transform="translate(-1005.254 -292.933)" fill="#e5e7ea"/>
  <path id="パス_398" data-name="パス 398" d="M1101.837,344.182h-4.373v-7.315h-1.98v8.973h6.353Z" transform="translate(-1001.782 -292.933)" fill="#e5e7ea"/>
  <path id="パス_399" data-name="パス 399" d="M1032.544,350.219h1.57v4.269h1.151v-4.269h1.568v-.968h-4.289Z" transform="translate(-1014.464 -290.438)" fill="#e5e7ea"/>
  <path id="パス_400" data-name="パス 400" d="M1046.24,352.025v-.016a1.3,1.3,0,0,0,.829-1.314,1.439,1.439,0,0,0-1.534-1.444h-2.82v5.237h1.15V352.43h1.156c.661,0,.884.428.9,1a3.292,3.292,0,0,0,.154,1.06h1.15a2.474,2.474,0,0,1-.22-1.242A1.212,1.212,0,0,0,1046.24,352.025Zm-1.115-.416h-1.26v-1.463h1.26c.515,0,.794.22.794.724C1045.919,351.392,1045.64,351.61,1045.125,351.61Z" transform="translate(-1012.415 -290.438)" fill="#e5e7ea"/>
  <path id="パス_401" data-name="パス 401" d="M1054.743,349.251l-1.985,5.237h1.15l.427-1.169h1.955l.4,1.169h1.2l-1.957-5.237Zm-.109,3.21.681-1.919h.014l.662,1.919Z" transform="translate(-1010.391 -290.438)" fill="#e5e7ea"/>
  <path id="パス_402" data-name="パス 402" d="M1065.755,349.251H1063.5v5.237h2.254c1.6,0,2.38-1.131,2.38-2.651A2.293,2.293,0,0,0,1065.755,349.251Zm-.079,4.269h-1.025v-3.3h.822c1.144,0,1.509.675,1.509,1.73C1066.982,353.108,1066.345,353.52,1065.676,353.52Z" transform="translate(-1008.226 -290.438)" fill="#e5e7ea"/>
  <rect id="長方形_137" data-name="長方形 137" width="1.152" height="5.237" transform="translate(68.038 58.813)" fill="#e5e7ea"/>
  <path id="パス_403" data-name="パス 403" d="M1085.367,352.762h-.013l-2.177-3.512h-1.154v5.237h1.08v-3.5h.013l2.18,3.5h1.147v-5.237h-1.076Z" transform="translate(-1004.494 -290.438)" fill="#e5e7ea"/>
  <path id="パス_404" data-name="パス 404" d="M1095.121,352.546h1.153a1.128,1.128,0,0,1-1.246,1.117c-1.032,0-1.417-.881-1.417-1.752,0-.916.385-1.8,1.417-1.8a1.072,1.072,0,0,1,1.106.882h1.114a2.125,2.125,0,0,0-2.22-1.849,2.749,2.749,0,0,0,0,5.486,1.787,1.787,0,0,0,1.442-.723l.1.6h.747v-2.817h-2.2Z" transform="translate(-1002.392 -290.459)" fill="#e5e7ea"/>
  <rect id="長方形_138" data-name="長方形 138" width="113.542" height="0.346" transform="translate(0 55.569)" fill="#e5e7ea"/>
  <path id="パス_405" data-name="パス 405" d="M1059.36,316.762l-5.284,10.051a.957.957,0,0,0-.089.219,1.945,1.945,0,0,0,.705-.278l1.063-.592a6.748,6.748,0,0,0,2.286-2.143l2.753-5.238A8.466,8.466,0,0,1,1059.36,316.762Z" transform="translate(-1010.143 -296.984)" fill="#e5e7ea"/>
  <path id="パス_406" data-name="パス 406" d="M1061.194,333.012h15.212l1.556,4.249h15.529L1077.757,300.3h-17.912l-15.734,36.959h15.526Zm3.8-13.821c-.077-.3-.147-.6-.2-.92a12.427,12.427,0,0,1-.2-1.769h3.99v3.486c-.3.008-.587.066-.878.1-.243.029-.5.036-.729.083a8.183,8.183,0,0,0-1.547.463A11.163,11.163,0,0,1,1065,319.191Zm-.227-5.16c.034-.208.09-.4.136-.6a11.713,11.713,0,0,1,.418-1.544,8.839,8.839,0,0,0,3.261.694v3.489l-4,0A13.032,13.032,0,0,1,1064.768,314.03Zm4.38-6.082a6.514,6.514,0,0,1,3.016,3.418,8.157,8.157,0,0,1-3.016.649Zm3.65,5.5c.043.2.1.392.133.6a13.036,13.036,0,0,1,.185,2.021h-3.969v-3.489a8.773,8.773,0,0,0,3.228-.684A11.741,11.741,0,0,1,1072.8,313.45Zm.115,4.748c-.053.321-.118.628-.195.935a10.91,10.91,0,0,1-.449,1.492,8.014,8.014,0,0,0-1.5-.452c-.232-.047-.487-.054-.729-.084-.3-.036-.582-.092-.889-.1V316.5h3.958A12.334,12.334,0,0,1,1072.913,318.2Zm-3.766,2.35a8.86,8.86,0,0,1,1.205.142,7.9,7.9,0,0,1,.778.178,7.5,7.5,0,0,1,.914.281c-.119.251-.258.476-.394.706-.121.205-.246.4-.378.585a5.5,5.5,0,0,1-2.125,1.877Zm-.565-8.533a8.087,8.087,0,0,1-3.043-.66,6.456,6.456,0,0,1,3.043-3.422Zm-1.97,8.845c.255-.067.507-.126.776-.172a8.945,8.945,0,0,1,1.194-.141v3.787a5.515,5.515,0,0,1-2.133-1.86c-.133-.184-.261-.376-.381-.579-.143-.24-.289-.477-.414-.741A7.55,7.55,0,0,1,1066.613,320.861Zm9.288-9.2c1.32-.768,2.63-1.368,3.758-1.086a2.478,2.478,0,0,1,1.534,1.236L1091.23,334.9c.264.5.148.783,0,.926a.586.586,0,0,1-.425.155,2.3,2.3,0,0,1-1.035-.353l-1.066-.6a7.941,7.941,0,0,1-2.039-1.7.579.579,0,0,1-.364.133,2.3,2.3,0,0,1-1.036-.353l-1.061-.594a7.99,7.99,0,0,1-2.039-1.7.575.575,0,0,1-.365.132,2.282,2.282,0,0,1-1.038-.353l-1.061-.592a8,8,0,0,1-2.04-1.7.577.577,0,0,1-.368.136,2.288,2.288,0,0,1-1.032-.352l-1.063-.6a7.186,7.186,0,0,1-2.526-2.391l-.541-1.027a8.437,8.437,0,0,1-2.486.626,6.13,6.13,0,0,0,1.923-1.7c.137-.175.279-.342.4-.536a9.277,9.277,0,0,0,.6-1.073,3.969,3.969,0,0,1,1.621,1.453,8.5,8.5,0,0,1-1.515.955l.533,1.016a6.7,6.7,0,0,0,2.287,2.143l1.062.6a1.852,1.852,0,0,0,.7.273,1.034,1.034,0,0,0-.089-.214l-2.655-5.058c.035-.032.072-.062.107-.095a4.011,4.011,0,0,0-.4-.458,4.885,4.885,0,0,0-1.43-1.135c.124-.306.233-.627.333-.955.085-.285.156-.58.222-.88a13.234,13.234,0,0,0,.315-2.535h3.641a8.382,8.382,0,0,1-.609,2.852l5.514,10.493h0a6.6,6.6,0,0,0,2.287,2.143l1.061.595a1.952,1.952,0,0,0,.705.274.988.988,0,0,0-.09-.211l-8.471-16.133.537-.282,8.468,16.129h0A6.764,6.764,0,0,0,1089,334.5l1.067.6a2,2,0,0,0,.7.276,1.049,1.049,0,0,0-.088-.211l-10.031-23.08a1.844,1.844,0,0,0-1.139-.922c-.925-.234-2.1.314-3.309,1.018a8.377,8.377,0,0,1,1.105,3.889h-3.631a13.86,13.86,0,0,0-.2-2.279c-.036-.209-.086-.409-.132-.613a11.9,11.9,0,0,0-.446-1.542,4.594,4.594,0,0,0,1.728-1.533A8.525,8.525,0,0,1,1075.9,311.66Zm-1.711-1.933a3.964,3.964,0,0,1-1.51,1.382,7.656,7.656,0,0,0-2.41-3.15A8.4,8.4,0,0,1,1074.189,309.727Zm-6.775-1.761a7.637,7.637,0,0,0-2.392,3.133,3.966,3.966,0,0,1-1.49-1.364A8.442,8.442,0,0,1,1067.414,307.965ZM1056.977,330.6a2.278,2.278,0,0,1-1.033.354.577.577,0,0,1-.368-.135,8.022,8.022,0,0,1-2.034,1.7l-1.063.595a2.311,2.311,0,0,1-1.037.352.575.575,0,0,1-.365-.135,7.87,7.87,0,0,1-2.041,1.7l-1.058.595a2.3,2.3,0,0,1-1.037.353.588.588,0,0,1-.425-.154c-.147-.143-.264-.424.01-.949l10.013-23.036a2.5,2.5,0,0,1,1.551-1.269c1.128-.282,2.434.316,3.75,1.081a8.464,8.464,0,0,1,1.266-1.54,4.6,4.6,0,0,0,1.7,1.513,11.645,11.645,0,0,0-.447,1.53c-.047.2-.1.4-.136.612a13.774,13.774,0,0,0-.208,2.306h-3.594a8.381,8.381,0,0,1,1.109-3.9c-1.205-.7-2.378-1.246-3.3-1.014a1.864,1.864,0,0,0-1.156.954l-10.006,23.023a1.086,1.086,0,0,0-.1.235,2.028,2.028,0,0,0,.707-.276l1.059-.595a6.677,6.677,0,0,0,2.285-2.14l8.475-16.13.537.282-8.474,16.129a1.015,1.015,0,0,0-.089.215,2.011,2.011,0,0,0,.709-.275l1.062-.594a6.629,6.629,0,0,0,2.283-2.145l5.511-10.481a8.382,8.382,0,0,1-.615-2.866h3.6a13.153,13.153,0,0,0,.333,2.6c.067.3.138.59.226.872.1.314.2.62.321.912a5.015,5.015,0,0,0-1.361,1.068,3.907,3.907,0,0,0-.441.506c.037.037.081.07.12.107l-2.657,5.054a.971.971,0,0,0-.088.215,1.864,1.864,0,0,0,.7-.273l1.069-.6a6.7,6.7,0,0,0,2.281-2.142l.532-1.013a8.434,8.434,0,0,1-1.533-.972,4,4,0,0,1,1.6-1.429,9.241,9.241,0,0,0,.616,1.1c.126.191.267.36.4.536a6.1,6.1,0,0,0,1.89,1.656,8.4,8.4,0,0,1-2.438-.615l-.536,1.021a7.172,7.172,0,0,1-2.522,2.391l-1.069.6a2.281,2.281,0,0,1-1.031.352.581.581,0,0,1-.368-.135,8.053,8.053,0,0,1-2.039,1.7Z" transform="translate(-1012.133 -300.301)" fill="#e5e7ea"/>
  <path id="パス_407" data-name="パス 407" d="M1071.219,316.755a8.392,8.392,0,0,1-1.435,2.02l2.753,5.243v0a6.65,6.65,0,0,0,2.289,2.142l1.06.592a2,2,0,0,0,.706.278,1,1,0,0,0-.089-.219Z" transform="translate(-1006.96 -296.986)" fill="#e5e7ea"/>
</svg>
