<svg xmlns="http://www.w3.org/2000/svg" xmlns:xlink="http://www.w3.org/1999/xlink" width="94.5" height="53.411" viewBox="0 0 94.5 53.411"><defs><style>.a{fill:#333;}.b{clip-path:url(#a);}</style><clipPath id="a"><rect class="a" width="94.5" height="53.411"/></clipPath></defs><g transform="translate(0 0)"><path class="a" d="M24.983,82.828h2.909l.589,1.735h1.78l-2.914-7.784H25.593l-2.955,7.784h1.713Zm1.46-4.132h.023l.979,2.857H25.431Z" transform="translate(-11.4 -40.465)"/><g transform="translate(0 0)"><g class="b"><path class="a" d="M67.523,78.839a2.049,2.049,0,0,0-2.182-2.06H61.313v7.468h1.643V81.316h1.652c.944,0,1.256.606,1.276,1.423a4.734,4.734,0,0,0,.219,1.508h1.644a3.473,3.473,0,0,1-.313-1.77,1.746,1.746,0,0,0-1.086-1.747v-.02a1.839,1.839,0,0,0,1.178-1.872m-2.769,1.308h-1.8V78.054h1.8c.732,0,1.129.313,1.129,1.037,0,.741-.4,1.056-1.129,1.056" transform="translate(-32.113 -40.213)"/><rect class="a" width="1.64" height="7.469" transform="translate(47.211 36.566)"/><path class="a" d="M133.155,78.16V76.779H127.57v7.468h5.669v-1.38h-4.023V81.037h3.616V79.762h-3.616v-1.6Z" transform="translate(-66.815 -40.213)"/><path class="a" d="M169.042,82.867H165.4V76.779h-1.648v7.468h5.287Z" transform="translate(-85.766 -40.213)"/><path class="a" d="M31.6,103.587H32.9v3.553h.958v-3.553h1.3v-.805H31.6Z" transform="translate(-16.549 -53.832)"/><path class="a" d="M55.887,105.09v-.013a1.078,1.078,0,0,0,.69-1.094,1.2,1.2,0,0,0-1.277-1.2H52.952v4.359h.958v-1.712h.962c.551,0,.736.356.748.831a2.716,2.716,0,0,0,.128.881H56.7a2.063,2.063,0,0,1-.183-1.033,1.01,1.01,0,0,0-.635-1.016m-.928-.345H53.91v-1.219h1.049c.428,0,.661.183.661.6s-.233.616-.661.616" transform="translate(-27.734 -53.831)"/><path class="a" d="M75.692,102.781,74.04,107.14H75l.355-.973H76.98l.33.973H78.3l-1.628-4.359Zm-.09,2.672.567-1.6h.012l.551,1.6Z" transform="translate(-38.778 -53.831)"/><path class="a" d="M98.474,102.781H96.6v4.359h1.876a1.938,1.938,0,0,0,1.98-2.205,1.908,1.908,0,0,0-1.98-2.154m-.066,3.553h-.853v-2.748h.684c.952,0,1.256.562,1.256,1.44,0,.965-.531,1.308-1.087,1.308" transform="translate(-50.593 -53.831)"/><rect class="a" width="0.959" height="4.359" transform="translate(56.627 48.95)"/><path class="a" d="M138.272,105.7h-.011l-1.812-2.923h-.961v4.359h.9v-2.917h.011l1.815,2.917h.955v-4.359h-.9Z" transform="translate(-70.962 -53.831)"/><path class="a" d="M159.615,105.392h.96a.939.939,0,0,1-1.037.929c-.859,0-1.179-.732-1.179-1.457,0-.762.32-1.5,1.179-1.5a.892.892,0,0,1,.921.734h.927a1.769,1.769,0,0,0-1.848-1.539,2.288,2.288,0,0,0,0,4.566,1.484,1.484,0,0,0,1.2-.6l.082.5h.622v-2.345h-1.827Z" transform="translate(-82.437 -53.717)"/><rect class="a" width="94.5" height="0.288" transform="translate(0 46.249)"/><path class="a" d="M81.093,34.564l-4.4,8.364a.794.794,0,0,0-.074.182,1.638,1.638,0,0,0,.587-.231l.885-.493A5.6,5.6,0,0,0,80,40.6l2.292-4.361a7.011,7.011,0,0,1-1.194-1.678" transform="translate(-40.13 -18.103)"/><path class="a" d="M70.1,27.224H82.763l1.3,3.536H96.983L83.887,0H68.979L55.884,30.76H68.806Zm3.164-11.5c-.064-.252-.122-.5-.168-.766a10.4,10.4,0,0,1-.168-1.472h3.321v2.9c-.253.007-.488.054-.732.084-.2.024-.413.03-.607.069a6.786,6.786,0,0,0-1.288.385,9.259,9.259,0,0,1-.36-1.2m-.19-4.295c.029-.172.076-.331.114-.5a9.672,9.672,0,0,1,.348-1.285,7.367,7.367,0,0,0,2.714.577v2.9l-3.332,0a10.744,10.744,0,0,1,.156-1.7m3.646-5.062a5.424,5.424,0,0,1,2.51,2.845,6.794,6.794,0,0,1-2.51.541Zm3.037,4.579c.037.168.082.326.111.5a10.755,10.755,0,0,1,.154,1.682h-3.3v-2.9a7.289,7.289,0,0,0,2.687-.569,9.746,9.746,0,0,1,.35,1.293m.1,3.952c-.044.267-.1.523-.161.778a9.23,9.23,0,0,1-.374,1.243,6.7,6.7,0,0,0-1.251-.376c-.193-.039-.405-.045-.607-.07-.246-.03-.484-.078-.74-.085v-2.9h3.294a10.3,10.3,0,0,1-.16,1.412m-3.134,1.955a7.34,7.34,0,0,1,1,.119,6.46,6.46,0,0,1,.648.148,6.317,6.317,0,0,1,.761.233c-.1.209-.215.4-.327.589-.1.17-.2.332-.315.487a4.585,4.585,0,0,1-1.769,1.562Zm-.47-7.1A6.744,6.744,0,0,1,73.719,9.2a5.369,5.369,0,0,1,2.533-2.848Zm-1.64,7.362c.211-.056.421-.106.646-.143a7.452,7.452,0,0,1,.994-.118V20a4.585,4.585,0,0,1-1.775-1.547c-.111-.154-.216-.313-.317-.482-.119-.2-.241-.4-.345-.617a6.387,6.387,0,0,1,.8-.245m7.729-7.658a4.555,4.555,0,0,1,3.129-.9,2.062,2.062,0,0,1,1.276,1.028L95.1,28.8c.22.418.123.651,0,.77a.485.485,0,0,1-.354.13,1.911,1.911,0,0,1-.861-.294l-.887-.5a6.627,6.627,0,0,1-1.7-1.414.48.48,0,0,1-.3.111,1.9,1.9,0,0,1-.862-.294l-.883-.494a6.663,6.663,0,0,1-1.7-1.416.477.477,0,0,1-.3.11,1.9,1.9,0,0,1-.864-.294l-.882-.493a6.646,6.646,0,0,1-1.7-1.417.479.479,0,0,1-.305.113,1.9,1.9,0,0,1-.859-.293l-.885-.5a5.981,5.981,0,0,1-2.1-1.99l-.45-.855a7.013,7.013,0,0,1-2.069.521,5.119,5.119,0,0,0,1.6-1.411c.113-.147.231-.286.336-.446a7.718,7.718,0,0,0,.5-.893,3.3,3.3,0,0,1,1.349,1.208,7.091,7.091,0,0,1-1.262.8l.444.845a5.59,5.59,0,0,0,1.9,1.785l.884.5a1.548,1.548,0,0,0,.586.227.83.83,0,0,0-.074-.178l-2.21-4.21c.03-.027.061-.051.09-.079a3.324,3.324,0,0,0-.331-.381,4.072,4.072,0,0,0-1.19-.945c.1-.255.195-.521.277-.794.071-.237.13-.483.185-.732a11,11,0,0,0,.262-2.11h3.03a6.973,6.973,0,0,1-.507,2.374L87.6,24.591h0a5.506,5.506,0,0,0,1.9,1.785l.882.494a1.638,1.638,0,0,0,.587.229.807.807,0,0,0-.075-.177L83.847,13.5l.446-.235,7.049,13.424h0a5.635,5.635,0,0,0,1.9,1.781l.888.5a1.648,1.648,0,0,0,.586.23.858.858,0,0,0-.073-.176L86.3,9.807a1.541,1.541,0,0,0-.948-.767,4.16,4.16,0,0,0-2.754.848,6.972,6.972,0,0,1,.919,3.237H80.493a11.446,11.446,0,0,0-.17-1.9c-.03-.174-.072-.34-.11-.51a9.835,9.835,0,0,0-.371-1.283A3.822,3.822,0,0,0,81.28,8.159a7.061,7.061,0,0,1,1.062,1.295M80.918,7.844a3.294,3.294,0,0,1-1.256,1.151,6.36,6.36,0,0,0-2.006-2.622,6.99,6.99,0,0,1,3.263,1.472M75.279,6.378a6.351,6.351,0,0,0-1.991,2.608,3.292,3.292,0,0,1-1.24-1.135,7.017,7.017,0,0,1,3.231-1.473M66.592,25.217a1.891,1.891,0,0,1-.86.3.48.48,0,0,1-.306-.112,6.689,6.689,0,0,1-1.693,1.416l-.886.495a1.917,1.917,0,0,1-.863.292.483.483,0,0,1-.3-.111,6.575,6.575,0,0,1-1.7,1.415L59.1,29.4a1.912,1.912,0,0,1-.863.294.488.488,0,0,1-.354-.129c-.122-.119-.22-.353.008-.79L66.226,9.605A2.08,2.08,0,0,1,67.517,8.55a4.537,4.537,0,0,1,3.121.9,7.057,7.057,0,0,1,1.053-1.282A3.819,3.819,0,0,0,73.11,9.426a9.727,9.727,0,0,0-.372,1.274c-.039.169-.082.334-.113.508a11.454,11.454,0,0,0-.173,1.919H69.46a6.985,6.985,0,0,1,.924-3.243,4.161,4.161,0,0,0-2.747-.844,1.554,1.554,0,0,0-.962.794L58.348,29a.9.9,0,0,0-.08.2,1.661,1.661,0,0,0,.588-.23l.881-.5a5.553,5.553,0,0,0,1.9-1.78l7.054-13.425.447.235L62.086,26.921a.832.832,0,0,0-.073.178,1.651,1.651,0,0,0,.59-.229l.884-.494a5.521,5.521,0,0,0,1.9-1.785l4.587-8.723a6.964,6.964,0,0,1-.513-2.385h3a10.942,10.942,0,0,0,.276,2.161c.057.247.116.491.189.726.08.261.168.516.266.76a4.178,4.178,0,0,0-1.132.888,3.244,3.244,0,0,0-.368.421c.031.03.068.058.1.089l-2.211,4.206a.877.877,0,0,0-.073.179,1.553,1.553,0,0,0,.586-.227l.89-.5a5.578,5.578,0,0,0,1.9-1.784l.443-.843a7,7,0,0,1-1.275-.809,3.337,3.337,0,0,1,1.333-1.189,7.653,7.653,0,0,0,.513.913c.1.159.222.3.336.446A5.077,5.077,0,0,0,75.8,20.3a6.968,6.968,0,0,1-2.028-.511l-.446.85a5.969,5.969,0,0,1-2.1,1.99l-.89.5a1.9,1.9,0,0,1-.858.293.487.487,0,0,1-.306-.112,6.669,6.669,0,0,1-1.7,1.416Z" transform="translate(-29.269 0)"/><path class="a" d="M110.984,34.547a7,7,0,0,1-1.194,1.682l2.292,4.364h0a5.53,5.53,0,0,0,1.9,1.784l.882.493a1.646,1.646,0,0,0,.588.23.815.815,0,0,0-.074-.181Z" transform="translate(-57.502 -18.094)"/></g></g></g></svg>