<svg xmlns="http://www.w3.org/2000/svg" viewBox="0 0 91.97 92.09"><defs><style>.cls-1{fill:#f1f1f1;}.cls-2{fill:#282828;}.cls-3{fill:none;stroke:#f1f1f1;stroke-miterlimit:10;stroke-width:0.38px;}</style></defs><g id="レイヤー_2" data-name="レイヤー 2"><g id="レイヤー_1-2" data-name="レイヤー 1"><path class="cls-1" d="M92,49.52,92,0S44.77,0,42.39.15h-.14A46,46,0,1,0,91.94,49.69h0Z"/><path class="cls-2" d="M46.08,3.05A43.14,43.14,0,1,0,89.21,46.19V3.05Z"/><path class="cls-1" d="M73.33,68.34A1.14,1.14,0,0,1,73,68a1.2,1.2,0,0,1-.15-.45,1.49,1.49,0,0,1,0-.47,1.18,1.18,0,0,1,.22-.45,1.26,1.26,0,0,1,.37-.32,1.2,1.2,0,0,1,.45-.15,1.11,1.11,0,0,1,.48,0,1.14,1.14,0,0,1,.44.22,1,1,0,0,1,.32.37,1.42,1.42,0,0,1,.16.45,1.25,1.25,0,0,1,0,.47,1.32,1.32,0,0,1-.21.45,1.3,1.3,0,0,1-.38.32,1.2,1.2,0,0,1-.45.15,1.25,1.25,0,0,1-.47,0,1.18,1.18,0,0,1-.45-.22m.14-.17a1.22,1.22,0,0,0,.36.18,1,1,0,0,0,.39,0,1,1,0,0,0,.68-.4,1,1,0,0,0,.18-.36,1,1,0,0,0-.11-.76,1,1,0,0,0-.26-.31,1.41,1.41,0,0,0-.37-.18,1,1,0,0,0-.76.11,1,1,0,0,0-.48.63,1,1,0,0,0,.1.76,1.14,1.14,0,0,0,.27.31m-.24-.87.33-.44a.56.56,0,0,1,.32-.23.41.41,0,0,1,.32.09.39.39,0,0,1,.17.25.4.4,0,0,1-.06.26l.7.07-.17.22-.67-.07-.12.15.46.35-.15.21Zm.65.17.11-.16.07-.09a.54.54,0,0,0,0-.11V67a.23.23,0,0,0-.07-.1.3.3,0,0,0-.11,0l-.1,0-.08.07-.08.09-.11.16Z"/><path class="cls-1" d="M41.91,35.29l-1.46-3.47H34.86c-.48,1.11-1,2.23-1.44,3.35l-.05.12h-.79l4.21-9.94c.25-.56.59-.68.83-.68h.09c.24,0,.57.12.81.68l4.16,9.94Zm-1.77-4.2-2.33-5.58a.25.25,0,0,0-.1-.12H37.6a.28.28,0,0,0-.08.11l-1.45,3.43c-.31.72-.61,1.44-.91,2.16Z"/><path class="cls-1" d="M37.71,24.88c.27,0,.47.21.62.55l4,9.65h-.31l-1.46-3.47H34.72c-.49,1.15-1,2.31-1.49,3.47H32.9L37,25.43c.15-.34.36-.55.63-.55h.09m-2.87,6.43h5.62L38,25.43c0-.09-.14-.25-.26-.25h-.15c-.12,0-.24.16-.27.25-.83,1.95-1.65,3.91-2.48,5.88m2.87-6.85h-.09c-.3,0-.72.14-1,.8l-4.09,9.66-.25.59h1.25l.11-.26c.45-1,.88-2,1.38-3.22h5.31l1.35,3.22.11.26H43l-.25-.59-4-9.65c-.31-.71-.77-.81-1-.81m-2.23,6.42L36.26,29c.46-1.11.93-2.22,1.4-3.32l2.16,5.17Z"/><path class="cls-1" d="M46,35.3c-.61,0-.91-.26-.91-.78V24.67h.72v9.85s0,.06.19.06h5.71v.72Z"/><path class="cls-1" d="M45.64,24.88v9.64c0,.18.1.27.4.27h5.5v.29H46c-.54,0-.7-.2-.7-.56V24.88h.3m.42-.42H44.91V34.52c0,.37.15,1,1.13,1H52V34.36h-5.9v-9.9Z"/><path class="cls-1" d="M55.22,35.3c-.61,0-.91-.26-.91-.78V24.67H55v9.85s0,.06.19.06h5.71v.72Z"/><path class="cls-1" d="M54.82,24.88v9.64c0,.18.1.27.4.27h5.5v.29h-5.5c-.54,0-.7-.2-.7-.56V24.88h.3m.42-.42H54.09V34.52c0,.37.15,1,1.13,1h5.92V34.36h-5.9v-9.9Z"/><path class="cls-1" d="M19.33,63.82a.53.53,0,0,1-.5-.36.53.53,0,0,1,.33-.66,8.06,8.06,0,0,0,5.51-6.1v-.44a12.46,12.46,0,0,1-6,2.21A5.27,5.27,0,0,1,14.55,57c-1.87-1.72-3-4.86-3-8.39,0-5.52,3.34-9.67,7.77-9.67a7.55,7.55,0,0,1,6.33,3.9l.06.11V55.19h0v1.63a9.11,9.11,0,0,1-6.21,7l-.17,0m0-23.8c-3.83,0-6.72,3.7-6.72,8.62,0,3.25,1,6.09,2.66,7.62a4.22,4.22,0,0,0,3.33,1.17A11.56,11.56,0,0,0,24.67,55V43.25A6.43,6.43,0,0,0,19.33,40"/><path class="cls-3" d="M19.33,63.82a.53.53,0,0,1-.5-.36.53.53,0,0,1,.33-.66,8.06,8.06,0,0,0,5.51-6.1v-.44a12.46,12.46,0,0,1-6,2.21A5.27,5.27,0,0,1,14.55,57c-1.87-1.72-3-4.86-3-8.39,0-5.52,3.34-9.67,7.77-9.67a7.55,7.55,0,0,1,6.33,3.9l.06.11V55.19h0v1.63a9.11,9.11,0,0,1-6.21,7Zm0-23.8c-3.83,0-6.72,3.7-6.72,8.62,0,3.25,1,6.09,2.66,7.62a4.22,4.22,0,0,0,3.33,1.17A11.56,11.56,0,0,0,24.67,55V43.25A6.43,6.43,0,0,0,19.33,40Z"/><path class="cls-1" d="M72.26,59.51c-4.44,0-7.78-4.16-7.78-9.67,0-3.54,1.12-6.68,3-8.4A5.32,5.32,0,0,1,71.61,40a12.36,12.36,0,0,1,6,2.2v-.52c0-.25.4-6.15-5.31-7.73a.53.53,0,0,1-.36-.64.52.52,0,0,1,.65-.37c6.34,1.76,6.1,8.33,6.07,8.8v1.54h0v12.2l-.06.11a7.52,7.52,0,0,1-6.32,3.91M71.11,41a4.22,4.22,0,0,0-2.92,1.19c-1.67,1.52-2.66,4.37-2.66,7.62,0,4.91,2.89,8.62,6.73,8.62a6.5,6.5,0,0,0,5.33-3.24V43.53a11.48,11.48,0,0,0-6.07-2.48l-.41,0"/><path class="cls-3" d="M72.26,59.51c-4.44,0-7.78-4.16-7.78-9.67,0-3.54,1.12-6.68,3-8.4A5.32,5.32,0,0,1,71.61,40a12.36,12.36,0,0,1,6,2.2v-.52c0-.25.4-6.15-5.31-7.73a.53.53,0,0,1-.36-.64.52.52,0,0,1,.65-.37c6.34,1.76,6.1,8.33,6.07,8.8v1.54h0v12.2l-.06.11A7.52,7.52,0,0,1,72.26,59.51ZM71.11,41a4.22,4.22,0,0,0-2.92,1.19c-1.67,1.52-2.66,4.37-2.66,7.62,0,4.91,2.89,8.62,6.73,8.62a6.5,6.5,0,0,0,5.33-3.24V43.53a11.48,11.48,0,0,0-6.07-2.48Z"/><path class="cls-1" d="M36.37,58.71c-4.21,0-7.63-4.37-7.63-9.75s3.42-9.76,7.63-9.76S44,43.58,44,49s-3.42,9.75-7.61,9.75m0-18.46c-3.63,0-6.58,3.91-6.58,8.71s3,8.71,6.58,8.71,6.57-3.91,6.57-8.71S40,40.25,36.37,40.25"/><path class="cls-3" d="M36.37,58.71c-4.21,0-7.63-4.37-7.63-9.75s3.42-9.76,7.63-9.76S44,43.58,44,49,40.56,58.71,36.37,58.71Zm0-18.46c-3.63,0-6.58,3.91-6.58,8.71s3,8.71,6.58,8.71,6.57-3.91,6.57-8.71S40,40.25,36.37,40.25Z"/><path class="cls-1" d="M54.32,58.71c-4.2,0-7.62-4.37-7.62-9.75s3.42-9.76,7.62-9.76,7.62,4.38,7.62,9.76-3.42,9.75-7.62,9.75m0-18.46c-3.63,0-6.58,3.91-6.58,8.71s2.95,8.71,6.58,8.71,6.57-3.91,6.57-8.71-3-8.71-6.57-8.71"/><path class="cls-3" d="M54.32,58.71c-4.2,0-7.62-4.37-7.62-9.75s3.42-9.76,7.62-9.76,7.62,4.38,7.62,9.76S58.52,58.71,54.32,58.71Zm0-18.46c-3.63,0-6.58,3.91-6.58,8.71s2.95,8.71,6.58,8.71,6.57-3.91,6.57-8.71S57.94,40.25,54.32,40.25Z"/><polygon class="cls-1" points="21.36 67.29 21.64 67.6 20.51 70.03 23.06 69.2 23.32 69.49 21.12 71.44 20.94 71.24 22.87 69.52 22.87 69.51 20.19 70.4 20.11 70.31 21.29 67.73 21.29 67.73 19.35 69.45 19.17 69.24 21.36 67.29"/><path class="cls-1" d="M21.11,71.6l-.33-.37,1.62-1.44-2.25.74-.18-.2,1-2.17-1.63,1.45L19,69.23l2.36-2.1.4.45,0,.07-1,2.2,2.37-.78.39.43Zm0-.35,0,0,2-1.8L23,69.33l-2.73.9,1.21-2.61-.15-.17-2,1.8,0,0,1.94-1.73.12.15,0,.07-1.13,2.47,2.64-.87.13.14L23,69.6Z"/><path class="cls-1" d="M24.6,70.7l.21.2-1.08,3-.23-.2.3-.79-1.15-1.06-.77.35L21.67,72Zm-.11.31-1.59.72,1,.91Z"/><path class="cls-1" d="M23.78,74.1l-.41-.38.29-.79-1-1-.77.35-.4-.37,3.16-1.39.32.29Zm-.14-.45,0,0,1-2.76,0,0-.71,1.93L22.69,71.7l1.9-.85h0L21.87,72l0,0,.77-.35,1.26,1.15Zm-.54-1.89.74.69.45-1.22Z"/><polygon class="cls-1" points="26.13 72.06 26.35 72.22 25.56 73.25 25.58 73.26 27.49 73.11 27.79 73.34 25.8 73.49 26.06 75.71 25.75 75.47 25.5 73.36 25.48 73.34 24.55 74.54 24.34 74.38 26.13 72.06"/><path class="cls-1" d="M26.2,76l-.56-.44-.23-1.92-.84,1.09-.4-.31,1.94-2.49.4.3-.72.93L27.53,73l.56.44-2.17.17Zm-.35-.56.06,0-.24-2.07,1.82-.14,0,0-1.84.14Zm-1.36-1.06,0,0,.93-1.2h0l.72-.94,0,0Z"/><polygon class="cls-1" points="28.25 73.65 29.75 74.64 29.62 74.84 28.35 74.01 27.77 74.88 28.96 75.67 28.83 75.88 27.63 75.09 27 76.05 28.33 76.92 28.2 77.13 26.64 76.11 28.25 73.65"/><path class="cls-1" d="M28.23,77.29l-1.75-1.15,1.74-2.65,1.69,1.11-.26.4-1.27-.84-.45.69,1.19.78-.26.4-1.19-.78-.51.76,1.33.88ZM26.8,76.07l1.36.9v0l-1.32-.87.75-1.15,1.19.79v0l-1.19-.79.7-1.06,1.27.84,0,0-1.31-.86Z"/><path class="cls-1" d="M29.35,77.17a.72.72,0,0,0,.4.65.61.61,0,0,0,.86-.18c.4-.72-1.16-1-.62-2a.84.84,0,0,1,1.21-.25,1,1,0,0,1,.53.71l-.29,0a.67.67,0,0,0-.36-.53.59.59,0,0,0-.85.16c-.43.78,1.15,1,.62,2a.85.85,0,0,1-1.2.28A1.14,1.14,0,0,1,29,77.2Z"/><path class="cls-1" d="M30.15,78.3a1.11,1.11,0,0,1-.55-.15,1.2,1.2,0,0,1-.68-.94V77.1l.55,0v.12a.63.63,0,0,0,.35.55.49.49,0,0,0,.7-.14c.14-.25,0-.42-.28-.71s-.67-.7-.34-1.3a.86.86,0,0,1,.78-.45,1.31,1.31,0,0,1,.59.16,1.09,1.09,0,0,1,.58.79l0,.12-.52.06,0-.11a.54.54,0,0,0-.3-.44.47.47,0,0,0-.69.12c-.15.27,0,.45.29.75s.65.67.33,1.25a.89.89,0,0,1-.8.48m-1-1a1,1,0,0,0,.54.65.88.88,0,0,0,.44.12.68.68,0,0,0,.6-.35c.24-.44,0-.7-.3-1s-.56-.57-.32-1a.69.69,0,0,1,1-.21.72.72,0,0,1,.4.5h.06a.9.9,0,0,0-.44-.51,1,1,0,0,0-.48-.13.64.64,0,0,0-.58.34c-.25.45,0,.72.3,1s.54.57.32,1a.73.73,0,0,1-1,.23.9.9,0,0,1-.46-.62Z"/><polygon class="cls-1" points="33.7 76.72 35.36 77.4 35.26 77.63 33.85 77.05 33.46 78.02 34.78 78.56 34.68 78.79 33.36 78.25 32.93 79.31 34.4 79.91 34.3 80.14 32.58 79.44 33.7 76.72"/><path class="cls-1" d="M34.36,80.29l-1.93-.79,1.2-2.93,1.88.77-.19.44-1.4-.58L33.6,78l1.33.54-.19.44-1.32-.54-.35.85,1.48.6Zm-1.64-.92,1.52.63v0l-1.47-.61.52-1.27,1.32.54v0l-1.32-.54.48-1.18,1.41.58v0l-1.45-.59Z"/><polygon class="cls-1" points="35.69 77.55 35.97 77.64 36.06 80.38 37.77 78.23 38.05 78.33 36.07 80.76 35.81 80.68 35.69 77.55"/><path class="cls-1" d="M36.1,80.89l-.4-.13-.13-3.37.51.16.08,2.52,1.58-2,.5.17ZM36,80.62h0l1.83-2.25h0Zm-.09,0h0l-.09-2.89,0,0Z"/><polygon class="cls-1" points="38.54 78.45 40.28 78.88 40.22 79.12 38.75 78.76 38.49 79.77 39.88 80.12 39.82 80.36 38.44 80.02 38.16 81.13 39.7 81.51 39.64 81.75 37.84 81.3 38.54 78.45"/><path class="cls-1" d="M39.72,81.89l-2-.5.75-3.08,2,.49-.11.46-1.48-.36-.2.79L40,80l-.12.47-1.38-.35L38.3,81l1.54.39ZM38,81.22l1.59.39v0L38,81.21l.33-1.33,1.39.34v0l-1.38-.34.3-1.24,1.48.37v0l-1.52-.38Z"/><path class="cls-1" d="M41.05,79l.77.13c.22,0,1,.17.9.94a.75.75,0,0,1-.87.62l.62,1.53-.31,0-.59-1.51-.5-.09L40.84,82l-.27,0Zm.06,1.33.57.09c.57.1.73-.2.77-.4s0-.53-.6-.63l-.57-.09Z"/><path class="cls-1" d="M42.65,82.4l-.57-.1-.59-1.51-.33-.06-.23,1.38L40.44,82,41,78.9l.87.15c1,.16,1.07.67,1,1.06a.81.81,0,0,1-.81.72Zm-.41-.3h0l-.61-1.5h.24a.6.6,0,0,0,.69-.52c.07-.44-.2-.7-.81-.81l-.65-.11-.45,2.68h0L41,80.47l.67.11Zm-.35-1.52h-.23L41,80.45l.21-1.26.68.12c.74.12.72.61.69.76a.61.61,0,0,1-.67.51m-.65-.32.46.08c.46.08.61-.14.64-.31s0-.41-.5-.5l-.46-.08Z"/><polygon class="cls-1" points="44.1 81.15 43.18 79.39 43.5 79.42 44.26 80.88 45.29 79.58 45.59 79.6 44.38 81.17 44.26 82.43 43.99 82.41 44.1 81.15"/><path class="cls-1" d="M44.36,82.56l-.49,0L44,81.17l-1-1.91.59,0,0,0,.68,1.31,1-1.21.57.05-1.33,1.7Zm-.25-.25h0l.1-1.18,1.12-1.43h0l-1.1,1.39-.81-1.56h-.06l.85,1.6Z"/><polygon class="cls-1" points="46.74 79.87 45.73 79.86 45.74 79.61 48.02 79.64 48.01 79.89 47.01 79.88 46.97 82.56 46.7 82.56 46.74 79.87"/><path class="cls-1" d="M47.08,82.68h-.5l0-2.69h-1v-.48l2.51,0V80l-1,0Zm-.27-.23h0l0-2.69h1v0l-2,0v0l1,0Z"/><polygon class="cls-1" points="48.59 79.62 48.86 79.6 48.95 80.89 50.59 80.78 50.5 79.49 50.77 79.47 50.98 82.4 50.71 82.42 50.61 81.03 48.97 81.14 49.07 82.53 48.8 82.55 48.59 79.62"/><path class="cls-1" d="M48.69,82.67l-.22-3.15.5,0,.09,1.29,1.41-.1-.09-1.29.5,0,.22,3.16-.5,0-.1-1.39-1.41.1.1,1.39Zm0-2.94.19,2.7H49L48.85,81l1.87-.13.09,1.39h0l-.19-2.7h-.05l.09,1.3L48.85,81l-.09-1.3Z"/><rect class="cls-1" x="51.89" y="79.31" width="0.27" height="2.94" transform="translate(-10.45 7.78) rotate(-7.77)"/><path class="cls-1" d="M52,82.38l-.43-3.14.5-.06.43,3.13Zm-.17-2.94.37,2.68h.05l-.37-2.69Z"/><polygon class="cls-1" points="52.9 79.18 53.25 79.11 55.52 81.27 55.53 81.26 55.01 78.75 55.28 78.69 55.87 81.57 55.53 81.64 53.25 79.48 53.25 79.48 53.77 82 53.5 82.06 52.9 79.18"/><path class="cls-1" d="M53.41,82.19l-.64-3.1.52-.11,2.06,2-.47-2.29.49-.1L56,81.65l-.52.11-2.06-2,.47,2.29ZM53,79.27l.55,2.65h0l-.52-2.52.17,0,0,0,2.23,2.12.18,0-.55-2.65h0l.52,2.51-.16.06-.06-.05-2.23-2.12Z"/><path class="cls-1" d="M59.28,80.37a2.35,2.35,0,0,1-1,.58,1.55,1.55,0,0,1-.92-3,1.42,1.42,0,0,1,1.13.07l-.13.26a1.18,1.18,0,0,0-.93-.09,1.29,1.29,0,0,0,.77,2.47A1.61,1.61,0,0,0,59,80.3l-.3-.94-.67.2-.07-.23.93-.3Z"/><path class="cls-1" d="M57.81,81.14a1.67,1.67,0,0,1-.45-3.25,1.52,1.52,0,0,1,1.21.08l.1,0-.23.48-.11-.07a1.07,1.07,0,0,0-.83-.08,1,1,0,0,0-.67.53,1.23,1.23,0,0,0-.06.93,1.1,1.1,0,0,0,1.43.79,1.65,1.65,0,0,0,.64-.33l-.24-.77-.67.21-.15-.46,1.16-.36.46,1.51,0,0a2.32,2.32,0,0,1-1,.62,1.89,1.89,0,0,1-.53.08M57.9,78a1.6,1.6,0,0,0-.47.08,1.44,1.44,0,0,0,.38,2.8,1.47,1.47,0,0,0,.46-.07,2.21,2.21,0,0,0,.88-.5l-.36-1.16-.72.22v0l.68-.21.35,1.12-.05,0a1.65,1.65,0,0,1-.78.44,1.76,1.76,0,0,1-.45.07,1.34,1.34,0,0,1-1.27-1,1.46,1.46,0,0,1,.08-1.11,1.3,1.3,0,0,1,.8-.64,1.41,1.41,0,0,1,.91,0l0,0A1.27,1.27,0,0,0,57.9,78"/><path class="cls-1" d="M60.45,77l.77-.35c.4-.19.9-.29,1.18.31a.61.61,0,0,1-.22.78h0a.67.67,0,0,1,.89.38.83.83,0,0,1-.55,1.15l-.85.39Zm.78,1,.51-.23c.52-.24.49-.57.41-.73-.17-.38-.48-.36-.8-.22l-.55.26Zm.59,1.29.56-.26c.59-.26.54-.63.45-.82a.62.62,0,0,0-.89-.26l-.61.28Z"/><path class="cls-1" d="M61.61,79.79,60.3,76.91l.87-.4c.66-.3,1.09-.17,1.33.37a.65.65,0,0,1,0,.66.83.83,0,0,1,.71.5.86.86,0,0,1,0,.68,1.23,1.23,0,0,1-.65.63ZM60.6,77l1.13,2.46.75-.34a1,1,0,0,0,.53-.5.6.6,0,0,0,0-.5.57.57,0,0,0-.5-.37.64.64,0,0,1,.46.39.6.6,0,0,1,0,.49.92.92,0,0,1-.53.49l-.67.3-.58-1.27.71-.32.19-.07,0-.07a1.13,1.13,0,0,1-.27.16l-.62.28L60.65,77l.65-.3a1,1,0,0,1,.42-.1.55.55,0,0,1,.53.37.54.54,0,0,1,0,.43s0,0,0,0a.48.48,0,0,0,0-.49c-.2-.42-.51-.5-1-.25Zm.88,1.27.39.85.47-.21a.71.71,0,0,0,.41-.36.45.45,0,0,0,0-.31.44.44,0,0,0-.42-.28.8.8,0,0,0-.33.08ZM61,77.13l.33.72.42-.18a.69.69,0,0,0,.36-.33.36.36,0,0,0,0-.26c-.12-.26-.33-.3-.65-.15Z"/><polygon class="cls-1" points="62.92 75.8 64.48 74.92 64.6 75.14 63.28 75.88 63.78 76.79 65.03 76.1 65.15 76.32 63.9 77.01 64.46 78.01 65.85 77.24 65.97 77.46 64.34 78.36 62.92 75.8"/><path class="cls-1" d="M64.3,78.52l-1.54-2.77,1.77-1,.23.42-1.33.73.4.72L65.07,76l.23.41-1.24.7.44.8,1.39-.77.23.41Zm-1.23-2.68,1.32,2.37,1.42-.8h0l-1.39.77L63.75,77l1.25-.7h0L63.74,77l-.62-1.11,1.33-.74v0Z"/><polygon class="cls-1" points="65.83 74.36 65 74.91 64.86 74.7 66.76 73.45 66.9 73.65 66.06 74.21 67.54 76.45 67.31 76.6 65.83 74.36"/><path class="cls-1" d="M67.28,76.76,65.8,74.51l-.84.56-.26-.4,2.1-1.38.26.4-.84.55,1.48,2.24ZM65.87,74.2l1.47,2.25,0,0-1.47-2.25.83-.55v0L65,74.73v0Z"/><polygon class="cls-1" points="67.89 72.91 67.09 73.52 66.94 73.32 68.74 71.93 68.89 72.13 68.1 72.74 69.75 74.86 69.53 75.03 67.89 72.91"/><path class="cls-1" d="M69.51,75.19l-1.64-2.12-.8.61-.29-.38,2-1.53.28.38-.79.61,1.64,2.13Zm-1.6-2.44,1.64,2.12,0,0-1.64-2.12.79-.62h0L67.1,73.34v0Z"/><polygon class="cls-1" points="69.18 71.55 70.52 70.34 70.68 70.53 69.55 71.55 70.25 72.32 71.31 71.37 71.48 71.55 70.42 72.51 71.18 73.36 72.36 72.3 72.53 72.48 71.15 73.73 69.18 71.55"/><path class="cls-1" d="M71.14,73.89,69,71.54l1.5-1.36.32.36-1.13,1,.55.6,1.06-1,.32.35-1.06,1,.61.68,1.18-1.07.32.36Zm-1.8-2.34,1.82,2,1.21-1.1v0l-1.18,1.07-.92-1,1.06-1h0l-1.06,1-.85-.94,1.13-1v0Z"/><path class="cls-1" d="M71.07,69.79l.53-.55c.16-.17.72-.76,1.28-.23a.74.74,0,0,1,0,1.06l1.61.35-.22.23-1.57-.36-.35.37,1,1-.18.2Zm1.13.7.39-.42c.4-.42.25-.72.1-.86s-.46-.28-.85.13l-.41.43Z"/><path class="cls-1" d="M73.2,72,70.9,69.8l.61-.64a1.35,1.35,0,0,1,.88-.48.87.87,0,0,1,.7,1.32l1.65.36-.4.42-1.58-.37-.23.25,1,1Zm-2-2.19,2,1.87,0,0-1-1,.48-.5,1.58.36,0,0-1.59-.34.1-.15a.61.61,0,0,0,0-.91.58.58,0,0,0-.41-.19,1.14,1.14,0,0,0-.71.41Zm1,.86-.93-.88.48-.5a.86.86,0,0,1,.61-.32.63.63,0,0,1,.41.17.63.63,0,0,1,.19.42.83.83,0,0,1-.28.6Zm-.6-.89.59.57.32-.34a.63.63,0,0,0,.22-.44.38.38,0,0,0-.12-.26.37.37,0,0,0-.25-.11.63.63,0,0,0-.44.24Z"/></g></g></svg>