<svg xmlns="http://www.w3.org/2000/svg" viewBox="0 0 338.04 64.05"><defs><style>.cls-1{fill:#282828;}</style></defs><g id="レイヤー_2" data-name="レイヤー 2"><g id="レイヤー_1-2" data-name="レイヤー 1"><path class="cls-1" d="M288.29,0h-4.75V42.26a19.19,19.19,0,0,1-.73,4.14C278,60.14,263.89,59.76,263,59.72a17.82,17.82,0,0,1-3.28-.56,24.52,24.52,0,0,1-2.63-.9,23,23,0,0,1-5.44-3.34c-5.1-4.47-6.47-10.67-6.82-14.13-.21-3.27-.08-6-.08-6L244.83,0H234.36V38.83c0,10.51,4.05,15.16,4.05,15.16,8.17,11.42,25.5,10,25.5,10,19.36-1,22.91-14.31,22.91-14.31C288.41,44.8,288.3,36,288.3,36Z"/><polygon class="cls-1" points="149.94 0 128.51 48.36 106.39 0 96.85 0 96.85 62.55 100.94 62.55 100.94 11.31 124.83 62.55 126.69 62.55 149.59 11.3 149.59 62.55 157.44 62.55 157.44 0 149.94 0"/><polygon class="cls-1" points="218.73 0 197.3 48.36 175.18 0 165.63 0 165.63 62.55 169.73 62.55 169.73 11.31 193.62 62.55 195.47 62.55 218.38 11.3 218.38 62.55 226.22 62.55 226.22 0 218.73 0"/><path class="cls-1" d="M88.65,4.08V0H47.15V62.55h41.5V58.47h-33v-28H85.87V26.41H55.66V4.08Z"/><path class="cls-1" d="M338,4.08V0h-41.5V62.55H338V58.47h-33v-28h30.2V26.41h-30.2V4.08Z"/><path class="cls-1" d="M38.91,4.08V0H0V62.55H8.52V30.49H36.13V26.41H8.52V4.08Z"/></g></g></svg>